<svg preserveAspectRatio="none" width="100%" height="100%" overflow="visible" style="display: block;" viewBox="0 0 86.9798 86.9798" fill="none" xmlns="http://www.w3.org/2000/svg">
<g id="Layer_1" clip-path="url(#clip0_0_42)">
<path id="Vector" d="M65.3959 0H21.5839C9.66342 0 0 9.66342 0 21.5839V65.3959C0 77.3164 9.66342 86.9798 21.5839 86.9798H65.3959C77.3164 86.9798 86.9798 77.3164 86.9798 65.3959V21.5839C86.9798 9.66342 77.3164 0 65.3959 0Z" fill="var(--fill-0, #FEE06F)"/>
<g id="Group">
<path id="Vector_2" d="M35.9002 59.6209C34.7554 55.3652 31.183 47.3245 20.2742 44.4624C19.7378 44.3215 19.7378 43.5633 20.2742 43.4225C31.186 40.5604 34.7584 32.5197 35.9002 28.264C36.044 27.7276 36.7993 27.7276 36.9431 28.264C38.0879 32.5197 41.6603 40.5604 52.5691 43.4225C53.1055 43.5633 53.1055 44.3215 52.5691 44.4624C41.6573 47.3245 38.0849 55.3652 36.9431 59.6209C36.7993 60.1573 36.044 60.1573 35.9002 59.6209Z" fill="var(--fill-0, #F9510D)"/>
<path id="Vector_3" d="M52.1375 36.8083C51.5232 34.5216 49.6051 30.206 43.7461 28.6686C43.4584 28.5937 43.4584 28.1861 43.7461 28.1112C49.6051 26.5737 51.5232 22.2552 52.1375 19.9715C52.2154 19.6838 52.62 19.6838 52.698 19.9715C53.3123 22.2582 55.2304 26.5737 61.0893 28.1112C61.3771 28.1861 61.3771 28.5937 61.0893 28.6686C55.2304 30.206 53.3123 34.5246 52.698 36.8083C52.62 37.096 52.2154 37.096 52.1375 36.8083Z" fill="var(--fill-0, #F9510D)"/>
<path id="Vector_4" d="M54.9067 61.0654C54.4901 59.516 53.1895 56.585 49.2125 55.542C49.0177 55.4911 49.0177 55.2154 49.2125 55.1644C53.1865 54.1215 54.4901 51.1935 54.9067 49.6411C54.9576 49.4463 55.2334 49.4463 55.2873 49.6411C55.7039 51.1905 57.0045 54.1215 60.9815 55.1644C61.1763 55.2154 61.1763 55.4911 60.9815 55.542C57.0075 56.585 55.7039 59.513 55.2873 61.0654C55.2364 61.2602 54.9606 61.2602 54.9067 61.0654Z" fill="var(--fill-0, #F9510D)"/>
</g>
</g>
<defs>
<clipPath id="clip0_0_42">
<rect width="86.9798" height="86.9798" fill="white"/>
</clipPath>
</defs>
</svg>
