<svg preserveAspectRatio="none" width="100%" height="100%" overflow="visible" style="display: block;" viewBox="0 0 86.9798 86.9798" fill="none" xmlns="http://www.w3.org/2000/svg">
<g id="Layer_1" clip-path="url(#clip0_0_32)">
<path id="Vector" d="M65.3959 0H21.5839C9.66342 0 0 9.66342 0 21.5839V65.3959C0 77.3164 9.66342 86.9798 21.5839 86.9798H65.3959C77.3164 86.9798 86.9798 77.3164 86.9798 65.3959V21.5839C86.9798 9.66342 77.3164 0 65.3959 0Z" fill="var(--fill-0, #D8D0FC)"/>
<g id="Group">
<path id="Vector_2" d="M63.0463 36.7094L57.0315 55.0086H29.9333L23.9245 36.7153L25.4379 35.6275L33.3018 41.5164C34.0661 42.0888 35.1569 41.8581 35.6275 41.0279L41.963 29.8134H45.0018L51.3493 41.0939C51.8199 41.927 52.9167 42.1578 53.6809 41.5794L61.5479 35.6365L63.0463 36.7094Z" fill="var(--fill-0, #4A35EA)"/>
<g id="Group_2">
<path id="Vector_3" d="M22.9654 38.4686C24.6703 38.4686 26.0523 37.0865 26.0523 35.3817C26.0523 33.6769 24.6703 32.2949 22.9654 32.2949C21.2606 32.2949 19.8786 33.6769 19.8786 35.3817C19.8786 37.0865 21.2606 38.4686 22.9654 38.4686Z" fill="var(--fill-0, #4A35EA)"/>
<path id="Vector_4" d="M64.0114 38.4686C65.7162 38.4686 67.0982 37.0865 67.0982 35.3817C67.0982 33.6769 65.7162 32.2949 64.0114 32.2949C62.3065 32.2949 60.9245 33.6769 60.9245 35.3817C60.9245 37.0865 62.3065 38.4686 64.0114 38.4686Z" fill="var(--fill-0, #4A35EA)"/>
<path id="Vector_5" d="M43.4824 31.8184C45.1872 31.8184 46.5692 30.4363 46.5692 28.7315C46.5692 27.0267 45.1872 25.6447 43.4824 25.6447C41.7776 25.6447 40.3956 27.0267 40.3956 28.7315C40.3956 30.4363 41.7776 31.8184 43.4824 31.8184Z" fill="var(--fill-0, #4A35EA)"/>
</g>
<path id="Vector_6" d="M29.9333 55.0086V58.1703C29.9333 59.9176 31.3509 61.3351 33.0981 61.3351H53.8518C55.599 61.3351 57.0165 59.9176 57.0165 58.1703V55.0086H29.9333Z" fill="var(--fill-0, #4A35EA)"/>
<path id="Vector_7" d="M28.261 55.0086H58.6918" stroke="var(--stroke-0, #D8D0FC)" stroke-width="4" stroke-miterlimit="10"/>
</g>
</g>
<defs>
<clipPath id="clip0_0_32">
<rect width="86.9798" height="86.9798" fill="white"/>
</clipPath>
</defs>
</svg>
