<svg width="194" height="244" viewBox="0 0 194 244" fill="none" xmlns="http://www.w3.org/2000/svg">
<g clip-path="url(#clip0_133_78)">
<path d="M193.47 214.3H38.8501C38.8501 214.3 0.0800797 189.15 7.97166e-05 141.4C-0.0799203 94.93 60.0801 82.52 60.0801 82.52C79.6501 77.37 96.2801 65.15 89.5301 48.9C87.2601 43.44 82.7901 39.25 77.4401 36.75C54.9901 26.29 29.8001 33.26 15.7701 38.91C11.5301 40.61 7.50008 35.99 9.77008 32.02C21.1301 12.19 45.7901 0 76.1001 0C112.15 0 143.8 21.63 142.2 60.88C141.18 85.85 112.58 102.4 91.9201 111.14C83.0301 114.89 81.4701 126.83 89.0801 132.77L193.47 214.3Z" fill="#FC4D19"/>
<mask id="mask0_133_78" style="mask-type:luminance" maskUnits="userSpaceOnUse" x="0" y="0" width="194" height="215">
<path d="M193.47 214.3H38.8501C38.8501 214.3 0.0800797 189.15 7.97166e-05 141.4C-0.0799203 94.93 60.0801 82.52 60.0801 82.52C79.6501 77.37 96.2801 65.15 89.5301 48.9C87.2601 43.44 82.7901 39.25 77.4401 36.75C54.9901 26.29 29.8001 33.26 15.7701 38.91C11.5301 40.61 7.50008 35.99 9.77008 32.02C21.1301 12.19 45.7901 0 76.1001 0C112.15 0 143.8 21.63 142.2 60.88C141.18 85.85 112.58 102.4 91.9201 111.14C83.0301 114.89 81.4701 126.83 89.0801 132.77L193.47 214.3Z" fill="white"/>
</mask>
<g mask="url(#mask0_133_78)">
<path d="M68.7402 172.46C89.4502 198.6 126.38 222.46 138.92 233.79" stroke="#FDF8F4" stroke-width="25" stroke-miterlimit="10"/>
<path d="M88.9305 87.7402C76.8005 96.7302 62.4905 105.6 55.6505 119.21C49.2805 132.12 58.0005 145.11 67.5805 154.13L46.9605 168.27C40.9905 155.69 36.7605 140.43 41.7205 126.73C43.2405 122.27 45.9305 118.55 48.6105 114.79C58.9205 101.09 74.3905 95.0102 88.9305 87.7402Z" fill="#FDF8F4"/>
<path d="M74.3008 15.6901C91.9708 13.3201 110.751 20.4501 117.431 38.0801C119.621 43.7401 120.211 50.0501 119.011 55.9201C118.511 58.0801 117.551 59.9001 116.501 61.7801C113.651 66.7201 109.141 71.0701 103.831 73.0001C107.861 68.1801 110.441 63.0001 111.741 57.0601C111.881 56.4101 112.041 55.4601 112.081 54.8701C112.191 46.6001 108.071 36.1601 101.251 30.0101C93.6308 22.9201 84.0008 19.6701 74.3108 15.6901H74.3008Z" fill="#FDF8F4"/>
</g>
</g>
<defs>
<clipPath id="clip0_133_78">
<rect width="193.47" height="243.06" fill="white"/>
</clipPath>
</defs>
</svg>
