<svg width="202" height="184" viewBox="0 0 202 184" fill="none" xmlns="http://www.w3.org/2000/svg">
<g filter="url(#filter0_d_74_145)">
<path d="M181.664 165.603C168.544 164.868 138.426 159.563 114.523 128.117L41.8467 132.418C31.5923 133.028 22.7977 125.204 22.1887 114.943L18.0333 44.5594C17.4243 34.3074 25.2427 25.4983 35.497 24.8889L151.349 18.0333C161.594 17.4239 170.398 25.2563 171.007 35.5083L175.162 105.892C175.682 114.648 170.057 122.355 162.024 124.783C164.344 134.094 170.38 152.931 182.873 162.359C184.279 163.425 183.428 165.702 181.664 165.603Z" fill="#FEFEFE"/>
</g>
<path d="M48.9043 54.3994L43.701 54.704L42.9576 57.2939L40.8262 57.4194L44.5428 44.703L46.8982 44.5596L52.0836 56.7473L49.9342 56.8728L48.9043 54.3994ZM48.2326 52.7684L45.8683 47.1047L44.1757 53.0014L48.2326 52.7684Z" fill="#23AD46"/>
<path d="M54.5018 44.1382L55.2362 56.5768L53.1943 56.6933L52.46 44.2547L54.5018 44.1382Z" fill="#23AD46"/>
<path d="M64.2277 48.6816L64.3262 50.4022L56.9735 50.8324L56.875 49.1118L64.2277 48.6816Z" fill="#23AD46"/>
<path d="M69.6282 46.1366C70.2013 45.7871 70.873 45.599 71.6253 45.5541C72.485 45.5004 73.2821 45.6706 74.0165 46.047C74.7508 46.4324 75.3419 46.988 75.7897 47.7318C76.2375 48.4756 76.4972 49.3359 76.551 50.3217C76.6047 51.3075 76.4614 52.2125 76.1032 53.0191C75.7449 53.8256 75.2255 54.4619 74.5359 54.9458C73.8553 55.4208 73.0851 55.6896 72.2253 55.7344C71.473 55.7792 70.8014 55.6627 70.1924 55.3939C69.5923 55.125 69.0908 54.7756 68.6968 54.3454L69.055 60.4661L67.0131 60.5826L66.1533 46.038L68.1952 45.9215L68.2848 47.3733C68.5982 46.8894 69.046 46.4771 69.6282 46.1366ZM73.9449 48.7086C73.6314 48.2336 73.2463 47.8751 72.7716 47.6421C72.297 47.4091 71.7954 47.3106 71.276 47.3465C70.7655 47.3733 70.2819 47.5346 69.8431 47.8304C69.3953 48.1171 69.055 48.5204 68.8042 49.0401C68.5535 49.5599 68.446 50.1603 68.4908 50.8324C68.5266 51.5135 68.7057 52.096 69.0192 52.5889C69.3326 53.0818 69.7267 53.4403 70.1924 53.6733C70.667 53.9063 71.1596 54.0138 71.6701 53.978C72.1895 53.9511 72.6731 53.7808 73.1209 53.4851C73.5597 53.1894 73.909 52.7771 74.1598 52.2484C74.4105 51.7197 74.518 51.1103 74.4732 50.4381C74.4284 49.766 74.2583 49.1835 73.9449 48.7086Z" fill="#23AD46"/>
<path d="M79.7656 54.6411C78.9865 54.2647 78.3596 53.7002 77.8939 52.9564C77.4192 52.2126 77.1506 51.3343 77.0879 50.3217C77.0252 49.318 77.1953 48.4218 77.5894 47.6153C77.9835 46.8177 78.5476 46.1814 79.291 45.7154C80.0253 45.2494 80.8672 44.9895 81.8075 44.9358C82.7479 44.882 83.6166 45.0343 84.4047 45.4107C85.1928 45.7871 85.8287 46.3427 86.3123 47.0955C86.7959 47.8483 87.0735 48.7175 87.1362 49.7212C87.1989 50.7249 87.0198 51.6211 86.6168 52.4276C86.2048 53.2341 85.6317 53.8704 84.8704 54.3364C84.1182 54.8024 83.2673 55.0713 82.327 55.125C81.3866 55.1878 80.5358 55.0264 79.7656 54.6411ZM83.6703 52.8936C84.1181 52.6158 84.4674 52.2215 84.7182 51.7017C84.9779 51.182 85.0854 50.5636 85.0406 49.8557C84.9958 49.1477 84.8256 48.5473 84.5212 48.0633C84.2167 47.5884 83.8315 47.2299 83.3658 47.0059C82.9001 46.7818 82.3986 46.6833 81.8792 46.7191C81.3508 46.746 80.8762 46.9073 80.4463 47.1851C80.0164 47.4629 79.685 47.8572 79.4522 48.368C79.2193 48.8788 79.1208 49.4882 79.1656 50.2052C79.2283 51.2626 79.5507 52.0692 80.1238 52.6158C80.697 53.1625 81.3956 53.4134 82.2195 53.3596C82.7389 53.3327 83.2226 53.1714 83.6703 52.8936Z" fill="#23AD46"/>
<path d="M101.269 43.959L98.7973 53.9959L96.6478 54.1214L94.2298 46.9522L92.6715 54.3544L90.5221 54.4798L86.8682 44.8014L88.9459 44.6759L91.4714 52.4814L93.0924 44.434L95.2239 44.3085L97.6957 52.0781L99.2719 44.0665L101.269 43.959Z" fill="#23AD46"/>
<path d="M111.264 49.0758L103.732 49.5239C103.839 50.3035 104.171 50.9219 104.717 51.37C105.272 51.818 105.926 52.0152 106.687 51.9704C107.78 51.9076 108.532 51.3968 108.926 50.4559L111.129 50.3215C110.888 51.2445 110.386 52.0241 109.643 52.6425C108.899 53.2698 107.941 53.6104 106.786 53.6821C105.846 53.7358 104.986 53.5745 104.216 53.1981C103.445 52.8217 102.827 52.2571 102.353 51.5133C101.878 50.7695 101.618 49.8913 101.565 48.8786C101.511 47.866 101.654 46.9609 102.021 46.1633C102.389 45.3657 102.926 44.7384 103.651 44.2814C104.368 43.8243 105.219 43.5644 106.177 43.5017C107.108 43.4479 107.95 43.6003 108.693 43.9677C109.446 44.3262 110.046 44.8639 110.494 45.5718C110.941 46.2798 111.192 47.1132 111.255 48.0721C111.3 48.4396 111.291 48.7711 111.264 49.0758ZM109.105 47.5523C109.052 46.7996 108.747 46.2171 108.192 45.7959C107.637 45.3747 106.974 45.1865 106.204 45.2313C105.496 45.2761 104.914 45.536 104.439 46.011C103.965 46.4859 103.705 47.1132 103.651 47.8839L109.105 47.5523Z" fill="#23AD46"/>
<path d="M115.419 43.3764C115.894 43.0628 116.476 42.8925 117.156 42.8477L117.282 44.9626L116.762 44.9895C115.965 45.0343 115.374 45.2762 114.98 45.7064C114.595 46.1365 114.425 46.8535 114.487 47.8572L114.792 53.0459L112.75 53.1624L112.168 43.3047L114.21 43.1882L114.29 44.622C114.568 44.1023 114.944 43.6901 115.419 43.3764Z" fill="#23AD46"/>
<path d="M127.518 48.108L119.987 48.5561C120.094 49.3357 120.426 49.9541 120.972 50.4021C121.527 50.8502 122.181 51.0474 122.942 51.0025C124.035 50.9398 124.787 50.429 125.181 49.488L127.384 49.3537C127.142 50.2767 126.641 51.0563 125.897 51.6747C125.154 52.302 124.196 52.6425 123.041 52.7142C122.1 52.768 121.241 52.6067 120.47 52.2303C119.7 51.8539 119.082 51.2894 118.607 50.5456C118.133 49.8017 117.873 48.9235 117.819 47.9109C117.757 46.8982 117.909 45.9931 118.276 45.1955C118.643 44.3979 119.181 43.7706 119.906 43.3136C120.623 42.8566 121.473 42.5967 122.432 42.5339C123.363 42.4802 124.205 42.6325 124.948 42.9999C125.7 43.3584 126.3 43.8961 126.748 44.6041C127.196 45.312 127.447 46.1454 127.51 47.1043C127.545 47.4717 127.545 47.8123 127.518 48.108ZM125.36 46.5845C125.306 45.8317 125.002 45.2493 124.447 44.8281C123.891 44.4069 123.229 44.2187 122.458 44.2635C121.751 44.3083 121.169 44.5682 120.694 45.0432C120.22 45.5181 119.96 46.1454 119.906 46.9072L125.36 46.5845Z" fill="#23AD46"/>
<path d="M128.503 44.6043C128.87 43.8156 129.398 43.1883 130.079 42.7223C130.76 42.2563 131.539 41.9964 132.407 41.9516C133.052 41.9158 133.697 42.0144 134.333 42.2563C134.978 42.4983 135.497 42.8388 135.891 43.2869L135.614 38.5283L137.673 38.4028L138.453 51.639L136.393 51.7645L136.303 50.2769C135.999 50.7698 135.56 51.191 134.987 51.5405C134.414 51.881 133.751 52.0781 132.981 52.1229C132.121 52.1767 131.324 52.0065 130.589 51.6122C129.855 51.2179 129.255 50.6443 128.798 49.8826C128.342 49.1298 128.082 48.2516 128.028 47.2658C127.983 46.28 128.136 45.3929 128.503 44.6043ZM135.578 45.0882C135.264 44.6042 134.879 44.2458 134.414 44.0038C133.948 43.7708 133.446 43.6633 132.927 43.6991C132.399 43.726 131.924 43.8873 131.485 44.1741C131.046 44.4608 130.706 44.8552 130.455 45.366C130.204 45.8768 130.097 46.4772 130.142 47.1493C130.177 47.8304 130.357 48.4219 130.67 48.9148C130.983 49.4076 131.369 49.784 131.852 50.017C132.327 50.259 132.819 50.3665 133.33 50.3306C133.858 50.3038 134.333 50.1425 134.772 49.8467C135.211 49.56 135.551 49.1477 135.802 48.628C136.052 48.1082 136.16 47.4988 136.115 46.8267C136.061 46.1546 135.891 45.5721 135.578 45.0882Z" fill="#23AD46"/>
<path d="M45.6084 71.0947C46.083 70.79 46.6652 70.6107 47.3458 70.5659L47.4712 72.6808L46.9517 72.7077C46.1547 72.7525 45.5636 72.9945 45.1695 73.4247C44.7844 73.8548 44.6143 74.5718 44.677 75.5754L44.9815 80.7642L42.9396 80.8807L42.3574 71.023L44.3994 70.9065L44.4799 72.3403C44.7576 71.8205 45.1337 71.4083 45.6084 71.0947Z" fill="#141046"/>
<path d="M50.7129 79.9488C49.9338 79.5724 49.3158 79.0078 48.8411 78.264C48.3665 77.5202 48.0978 76.6419 48.0351 75.6293C47.9725 74.6256 48.1426 73.7294 48.5367 72.9229C48.9307 72.1253 49.4949 71.489 50.2382 71.023C50.9816 70.557 51.8144 70.2972 52.7548 70.2434C53.6951 70.1896 54.5639 70.3419 55.352 70.7183C56.1401 71.0947 56.776 71.6503 57.2596 72.4031C57.7432 73.1559 58.0208 74.0251 58.0835 75.0288C58.1462 76.0325 57.967 76.9287 57.564 77.7352C57.1521 78.5418 56.5789 79.178 55.8177 79.644C55.0654 80.11 54.2146 80.3789 53.2742 80.4327C52.3428 80.4954 51.4921 80.3341 50.7129 79.9488ZM54.6266 78.2012C55.0744 77.9234 55.4236 77.5291 55.6744 77.0093C55.9341 76.4896 56.0416 75.8712 55.9968 75.1633C55.952 74.4553 55.7819 73.8549 55.4774 73.371C55.1729 72.887 54.7878 72.5375 54.3221 72.3135C53.8564 72.0895 53.3549 71.9909 52.8354 72.0267C52.316 72.0626 51.8323 72.2149 51.4025 72.4927C50.9726 72.7706 50.6412 73.1649 50.4084 73.6757C50.1755 74.1865 50.077 74.7959 50.1218 75.5128C50.1845 76.5792 50.5069 77.3768 51.0801 77.9234C51.6532 78.4701 52.3518 78.721 53.1757 78.6672C53.6952 78.6314 54.1788 78.4791 54.6266 78.2012Z" fill="#141046"/>
<path d="M67.9177 69.5171L68.4999 79.3748L66.458 79.4913L66.3863 78.3263C66.0908 78.7475 65.6877 79.097 65.1862 79.3568C64.6847 79.6167 64.1384 79.7691 63.5562 79.8049C62.7771 79.8497 62.0786 79.7333 61.4427 79.4465C60.8068 79.1597 60.2963 78.7116 59.9112 78.1023C59.5261 77.4929 59.3023 76.7401 59.2485 75.8439L58.9082 70.0458L60.9322 69.9293L61.2546 75.4227C61.3083 76.3009 61.5681 76.9731 62.0338 77.4122C62.4995 77.8603 63.1175 78.0574 63.8787 78.0126C64.6399 77.9678 65.231 77.699 65.6519 77.1971C66.0728 76.6953 66.252 76.0053 66.2072 75.127L65.8848 69.6336L67.9177 69.5171Z" fill="#141046"/>
<path d="M72.2524 70.9334L72.5748 76.3909C72.5927 76.7583 72.7002 77.0182 72.8793 77.1706C73.0584 77.3229 73.3629 77.3857 73.7749 77.3588L75.0287 77.2871L75.1272 78.9898L73.5152 79.0884C72.5927 79.1421 71.8852 78.9718 71.3658 78.5686C70.8553 78.1653 70.5687 77.4842 70.506 76.5164L70.1836 71.0588L69.0194 71.1305L68.9209 69.4637L70.0851 69.392L69.9418 66.9365L72.0016 66.811L72.145 69.2665L74.5361 69.1231L74.6346 70.79L72.2524 70.9334Z" fill="#141046"/>
<path d="M84.8974 74.2223L77.3656 74.6704C77.4731 75.459 77.8044 76.0684 78.3507 76.5165C78.906 76.9645 79.5598 77.1617 80.321 77.1169C81.4136 77.0541 82.1659 76.5433 82.56 75.6024L84.763 75.468C84.5212 76.391 84.0197 77.1706 83.2764 77.789C82.5331 78.4163 81.5748 78.7569 80.4195 78.8285C79.4792 78.8823 78.6194 78.721 77.8492 78.3446C77.079 77.9682 76.4611 77.4036 75.9954 76.6598C75.5297 75.916 75.261 75.0378 75.1983 74.0251C75.1356 73.0125 75.2878 72.1074 75.655 71.3098C76.0222 70.5122 76.5596 69.8849 77.285 69.4278C78.0015 68.9618 78.8523 68.7109 79.8105 68.6482C80.7419 68.5944 81.5838 68.7468 82.3361 69.1142C83.0883 69.4727 83.6884 70.0103 84.1362 70.7183C84.584 71.4263 84.8347 72.2597 84.8974 73.2186C84.9332 73.586 84.9332 73.9176 84.8974 74.2223ZM82.748 72.6988C82.6943 71.9461 82.3898 71.3635 81.8345 70.9423C81.2793 70.5212 80.6165 70.333 79.8463 70.3778C79.1388 70.4226 78.5567 70.6825 78.0821 71.1575C77.6074 71.6324 77.3477 72.2597 77.294 73.0214L82.748 72.6988Z" fill="#141046"/>
<path d="M87.8801 77.9679C87.2532 77.726 86.7427 77.3675 86.3576 76.9105C85.9725 76.4445 85.7486 75.9247 85.6859 75.3243L87.7995 75.1988C87.8622 75.611 88.0771 75.9516 88.4622 76.2115C88.8383 76.4713 89.3041 76.5789 89.8504 76.552C90.4235 76.5161 90.8624 76.3818 91.1668 76.1398C91.4713 75.8978 91.6147 75.611 91.5878 75.2615C91.5699 74.8941 91.3728 74.6253 91.0146 74.4729C90.6474 74.3116 90.0832 74.1503 89.304 73.98C88.5517 73.8187 87.9428 73.6574 87.4681 73.4961C86.9935 73.3348 86.5726 73.066 86.2054 72.6896C85.8382 72.3132 85.6411 71.8113 85.6053 71.1661C85.5695 70.6374 85.7038 70.1535 85.9815 69.6964C86.2681 69.2394 86.689 68.8719 87.2532 68.5852C87.8174 68.2984 88.4712 68.1371 89.2235 68.0923C90.3429 68.0296 91.2654 68.2536 91.9819 68.7824C92.6983 69.3111 93.1102 70.0549 93.2177 71.0317L91.1758 71.1482C91.1131 70.7091 90.9161 70.3685 90.5758 70.1266C90.2355 69.8846 89.7966 69.7771 89.2503 69.813C88.713 69.8488 88.31 69.9742 88.0323 70.1893C87.7547 70.4134 87.6293 70.6822 87.6472 71.0227C87.6651 71.2826 87.7726 71.4977 87.9696 71.6679C88.1667 71.8382 88.4085 71.9637 88.695 72.0444C88.9727 72.125 89.3846 72.2325 89.9309 72.358C90.6564 72.5103 91.2564 72.6627 91.7221 72.833C92.1878 73.0033 92.6087 73.2721 92.967 73.6305C93.3252 73.989 93.5222 74.4909 93.576 75.1182C93.6118 75.6827 93.4864 76.1935 93.1998 76.6506C92.9132 77.1076 92.5013 77.484 91.946 77.7618C91.3907 78.0486 90.737 78.2099 89.9757 78.2547C89.2055 78.3085 88.507 78.2099 87.8801 77.9679Z" fill="#141046"/>
<path d="M112.392 67.2052C113.028 67.492 113.538 67.9401 113.924 68.5494C114.309 69.1588 114.533 69.9116 114.586 70.8078L114.927 76.6238L112.903 76.7403L112.58 71.2289C112.526 70.3507 112.267 69.6786 111.801 69.2395C111.335 68.7914 110.717 68.5943 109.956 68.6391C109.195 68.6839 108.604 68.9527 108.183 69.4546C107.762 69.9564 107.583 70.6464 107.628 71.5247L107.95 77.036L105.926 77.1525L105.604 71.6412C105.55 70.7629 105.29 70.0908 104.824 69.6517C104.359 69.2036 103.741 69.0065 102.98 69.0513C102.218 69.0961 101.627 69.365 101.206 69.8668C100.785 70.3687 100.606 71.0587 100.66 71.9369L100.982 77.4482L98.9405 77.5647L98.3584 67.707L100.4 67.5905L100.463 68.7197C100.776 68.2985 101.179 67.958 101.681 67.6981C102.182 67.4382 102.72 67.2948 103.302 67.259C104.09 67.2142 104.798 67.3396 105.442 67.6353C106.078 67.9311 106.589 68.3881 106.956 68.9975C107.216 68.3792 107.654 67.8863 108.263 67.492C108.872 67.1066 109.544 66.8826 110.27 66.8468C111.058 66.802 111.765 66.9274 112.392 67.2052Z" fill="#141046"/>
<path d="M116.198 68.9257C116.565 68.1371 117.093 67.5098 117.774 67.0438C118.455 66.5778 119.225 66.3179 120.084 66.2731C120.864 66.2283 121.544 66.3359 122.144 66.6137C122.744 66.8915 123.228 67.232 123.595 67.6711L123.515 66.2372L125.574 66.1118L126.156 75.9695L124.097 76.0949L124.007 74.6253C123.685 75.1092 123.237 75.5304 122.664 75.8709C122.091 76.2204 121.419 76.4086 120.649 76.4534C119.798 76.5072 119.019 76.3279 118.284 75.9336C117.55 75.5393 116.959 74.9658 116.502 74.2041C116.045 73.4513 115.786 72.5731 115.732 71.5873C115.669 70.6015 115.83 69.7143 116.198 68.9257ZM123.273 69.4007C122.959 68.9168 122.574 68.5583 122.108 68.3253C121.643 68.0923 121.141 67.9848 120.622 68.0206C120.102 68.0475 119.619 68.2088 119.18 68.4956C118.741 68.7823 118.401 69.1767 118.15 69.6875C117.899 70.1983 117.792 70.7987 117.837 71.4708C117.872 72.1519 118.052 72.7433 118.365 73.2362C118.678 73.7291 119.064 74.1055 119.547 74.3385C120.022 74.5805 120.514 74.688 121.025 74.6521C121.544 74.6252 122.028 74.464 122.467 74.1682C122.906 73.8815 123.246 73.4692 123.497 72.9495C123.747 72.4297 123.855 71.8203 123.81 71.1482C123.756 70.4671 123.586 69.8846 123.273 69.4007Z" fill="#141046"/>
<path d="M127.491 68.2538C127.858 67.4652 128.387 66.8379 129.067 66.3719C129.748 65.9059 130.527 65.646 131.396 65.5922C132.041 65.5564 132.685 65.6549 133.321 65.8969C133.966 66.1389 134.485 66.4884 134.88 66.9275L134.602 62.1689L136.662 62.0435L137.441 75.2797L135.381 75.4051L135.292 73.9175C134.987 74.4104 134.548 74.8316 133.975 75.1811C133.402 75.5216 132.739 75.7188 131.969 75.7636C131.109 75.8173 130.312 75.6471 129.578 75.2528C128.843 74.8584 128.243 74.2849 127.787 73.5232C127.33 72.7704 127.07 71.8922 127.016 70.9064C126.972 69.9296 127.124 69.0424 127.491 68.2538ZM134.575 68.7378C134.262 68.2538 133.876 67.8954 133.411 67.6624C132.945 67.4294 132.444 67.3218 131.924 67.3576C131.396 67.3845 130.921 67.5459 130.482 67.8326C130.043 68.1194 129.703 68.5137 129.452 69.0245C129.202 69.5353 129.094 70.1358 129.139 70.8079C129.175 71.4889 129.354 72.0804 129.667 72.5733C129.981 73.0661 130.375 73.4426 130.849 73.6756C131.324 73.9086 131.817 74.025 132.327 73.9892C132.856 73.9623 133.33 73.801 133.769 73.5053C134.208 73.2185 134.548 72.8063 134.799 72.2865C135.05 71.7667 135.157 71.1574 135.112 70.4853C135.059 69.8042 134.88 69.2217 134.575 68.7378Z" fill="#141046"/>
<path d="M148.017 70.4853L140.486 70.9334C140.593 71.722 140.924 72.3314 141.471 72.7795C142.026 73.2275 142.68 73.4247 143.441 73.3799C144.534 73.3171 145.286 72.8063 145.68 71.8654L147.883 71.7309C147.641 72.654 147.14 73.4336 146.396 74.052C145.653 74.6793 144.695 75.0198 143.54 75.0915C142.599 75.1453 141.739 74.984 140.969 74.6076C140.199 74.2312 139.581 73.6666 139.115 72.9228C138.65 72.179 138.381 71.3008 138.318 70.2881C138.256 69.2755 138.408 68.3703 138.775 67.5817C139.142 66.7841 139.68 66.1569 140.405 65.6998C141.122 65.2338 141.972 64.9829 142.931 64.9202C143.862 64.8664 144.704 65.0188 145.447 65.3862C146.199 65.7446 146.799 66.2823 147.247 66.9903C147.695 67.6982 147.946 68.5316 148.009 69.4905C148.053 69.849 148.044 70.1896 148.017 70.4853ZM145.868 68.9618C145.814 68.2091 145.51 67.6265 144.955 67.2053C144.399 66.7842 143.737 66.596 142.966 66.6408C142.259 66.6856 141.677 66.9455 141.202 67.4204C140.727 67.8954 140.468 68.5227 140.414 69.2844L145.868 68.9618Z" fill="#141046"/>
<path d="M46.4949 106.206C46.5486 107.174 46.3516 107.891 45.8948 108.348C45.4381 108.814 44.7485 109.074 43.835 109.127L42.7782 109.19L42.6797 107.469L43.3783 107.425C43.7992 107.398 44.0857 107.299 44.2469 107.129C44.4082 106.959 44.4798 106.69 44.4619 106.313L43.7634 94.52L45.8052 94.4036L46.4949 106.206ZM43.7634 92.8442C43.4947 92.6112 43.3514 92.3066 43.3335 91.9392C43.3156 91.5717 43.4141 91.2491 43.6559 90.9892C43.8887 90.7203 44.1932 90.577 44.5604 90.559C44.9187 90.5411 45.2321 90.6487 45.4918 90.8817C45.7515 91.1147 45.9038 91.4194 45.9217 91.7868C45.9396 92.1542 45.8411 92.4768 45.5993 92.7367C45.3664 93.0055 45.0709 93.149 44.7127 93.1669C44.3455 93.1848 44.032 93.0772 43.7634 92.8442Z" fill="#141046"/>
<path d="M56.5798 93.7764L57.162 103.634L55.12 103.751L55.0484 102.586C54.7528 103.007 54.3498 103.356 53.8483 103.616C53.3468 103.876 52.8005 104.028 52.2184 104.064C51.4392 104.109 50.7407 103.992 50.1048 103.706C49.469 103.419 48.9585 102.971 48.5734 102.361C48.1883 101.752 47.9644 100.999 47.9106 100.103L47.5703 94.3051L49.5943 94.1886L49.9167 99.682C49.9705 100.56 50.2302 101.232 50.6959 101.671C51.1616 102.12 51.7795 102.317 52.5408 102.272C53.302 102.227 53.8931 101.958 54.314 101.456C54.7349 100.955 54.9141 100.265 54.8603 99.3863L54.5379 93.8929L56.5798 93.7764Z" fill="#141046"/>
<path d="M60.4931 103.177C59.8573 102.935 59.3558 102.577 58.9707 102.119C58.5856 101.653 58.3617 101.134 58.299 100.533L60.4126 100.408C60.4753 100.82 60.6902 101.161 61.0753 101.42C61.4514 101.68 61.9171 101.797 62.4634 101.761C63.0366 101.725 63.4754 101.591 63.7799 101.349C64.0844 101.107 64.2277 100.82 64.2008 100.471C64.1829 100.103 63.9859 99.8342 63.6277 99.6819C63.2605 99.5206 62.6963 99.3593 61.9171 99.189C61.1649 99.0277 60.5558 98.8664 60.0812 98.7051C59.6065 98.5438 59.1856 98.2749 58.8184 97.8986C58.4512 97.5222 58.2542 97.0203 58.2184 96.3751C58.1915 95.8464 58.3169 95.3625 58.5945 94.9054C58.8811 94.4484 59.302 94.0809 59.8662 93.7942C60.4304 93.5074 61.0842 93.3461 61.8365 93.3013C62.956 93.2386 63.8784 93.4626 64.5949 93.9913C65.3114 94.5201 65.7233 95.2728 65.8308 96.2407L63.7889 96.3572C63.7262 95.9181 63.5292 95.5775 63.1888 95.3356C62.8485 95.0936 62.4097 94.986 61.8634 95.0219C61.3261 95.0577 60.923 95.1832 60.6454 95.3983C60.3677 95.6223 60.2424 95.8912 60.2603 96.2317C60.2782 96.4916 60.3857 96.7067 60.5827 96.8769C60.7797 97.0472 61.0216 97.1727 61.3082 97.2534C61.5858 97.334 61.9977 97.4415 62.544 97.567C63.2694 97.7193 63.8695 97.8717 64.3352 98.042C64.8009 98.2122 65.2218 98.481 65.5711 98.8395C65.9293 99.198 66.1263 99.6998 66.18 100.327C66.2159 100.892 66.0905 101.403 65.8039 101.86C65.5173 102.317 65.1054 102.693 64.5501 102.971C63.9949 103.258 63.3411 103.419 62.5799 103.464C61.8276 103.517 61.129 103.419 60.4931 103.177Z" fill="#141046"/>
<path d="M69.6372 94.6725L69.9596 100.13C69.9775 100.497 70.085 100.757 70.2642 100.91C70.4433 101.062 70.7478 101.125 71.1597 101.098L72.4135 101.026L72.512 102.729L70.9 102.827C69.9775 102.881 69.2701 102.711 68.7506 102.308C68.2312 101.904 67.9535 101.223 67.8909 100.255L67.5685 94.7979L66.4042 94.8696L66.3057 93.2027L67.4699 93.131L67.3266 90.6846L69.3865 90.5591L69.5298 93.0056L71.9209 92.8622L72.0194 94.529L69.6372 94.6725Z" fill="#141046"/>
<path d="M81.047 94.0002L79.2201 94.1078L79.7037 102.299L77.6438 102.424L77.1602 94.2333L75.996 94.3049L75.8975 92.6381L77.0617 92.5664L77.0169 91.8674C76.9453 90.7382 77.205 89.8869 77.7692 89.3313C78.3334 88.7757 79.2738 88.462 80.5545 88.3813L80.653 90.0841C80.035 90.1199 79.6052 90.2633 79.3723 90.5142C79.1395 90.7651 79.032 91.1684 79.0678 91.7419L79.1126 92.441L80.9396 92.3334L81.047 94.0002Z" fill="#141046"/>
<path d="M84.2352 101.555C83.456 101.178 82.8381 100.614 82.3634 99.87C81.8888 99.1262 81.6201 98.248 81.5664 97.2353C81.5037 96.2317 81.6739 95.3355 82.0679 94.5289C82.462 93.7314 83.0261 93.0951 83.7695 92.6291C84.5128 92.1631 85.3457 91.9032 86.286 91.8495C87.2264 91.7957 88.0951 91.957 88.8832 92.3244C89.6713 92.7008 90.3072 93.2564 90.7908 94.0092C91.2744 94.762 91.552 95.6312 91.6147 96.6349C91.6774 97.6386 91.4983 98.5347 91.0953 99.3413C90.6833 100.148 90.1102 100.775 89.349 101.25C88.5877 101.725 87.7458 101.985 86.8055 102.039C85.8651 102.101 85.0143 101.931 84.2352 101.555ZM88.1489 99.8073C88.5966 99.5295 88.9459 99.1352 89.1967 98.6154C89.4564 98.0956 89.5639 97.4773 89.5191 96.7693C89.4743 96.0524 89.3042 95.452 88.9997 94.977C88.6952 94.5021 88.31 94.1436 87.8443 93.9196C87.3786 93.6955 86.8771 93.5969 86.3577 93.6328C85.8383 93.6686 85.3547 93.821 84.9248 94.0988C84.4949 94.3766 84.1635 94.7709 83.9307 95.2817C83.6978 95.7925 83.5993 96.4019 83.6441 97.1188C83.7068 98.1853 84.0292 98.9828 84.6024 99.5295C85.1755 100.076 85.8741 100.327 86.698 100.273C87.2175 100.237 87.7011 100.085 88.1489 99.8073Z" fill="#141046"/>
<path d="M95.7607 91.7153C96.2354 91.4016 96.8175 91.2313 97.4981 91.1865L97.6235 93.3014L97.1041 93.3283C96.307 93.3732 95.7159 93.6151 95.3219 94.0453C94.9278 94.4754 94.7666 95.1924 94.8293 96.196L95.1338 101.385L93.0919 101.501L92.5098 91.6436L94.5517 91.5271L94.6323 92.9609C94.9099 92.4411 95.2771 92.0289 95.7607 91.7153Z" fill="#141046"/>
<path d="M111.254 90.541L106.069 105.39L103.955 105.516L105.675 100.605L101.224 91.1415L103.498 91.007L106.714 98.3555L109.15 90.6665L111.254 90.541Z" fill="#141046"/>
<path d="M114.272 99.7804C113.493 99.404 112.875 98.8394 112.401 98.0956C111.926 97.3518 111.657 96.4736 111.604 95.4609C111.541 94.4572 111.711 93.5611 112.105 92.7545C112.499 91.948 113.063 91.3207 113.807 90.8547C114.55 90.3887 115.383 90.1288 116.323 90.075C117.264 90.0213 118.132 90.1826 118.92 90.55C119.708 90.9264 120.344 91.482 120.828 92.2347C121.312 92.9875 121.589 93.8568 121.652 94.8605C121.715 95.8642 121.535 96.7603 121.132 97.5669C120.72 98.3734 120.147 99.0007 119.386 99.4757C118.634 99.9417 117.783 100.211 116.843 100.264C115.902 100.318 115.051 100.157 114.272 99.7804ZM118.186 98.0329C118.634 97.7551 118.983 97.3608 119.234 96.841C119.494 96.3212 119.601 95.7029 119.556 94.9949C119.511 94.278 119.341 93.6776 119.037 93.2026C118.732 92.7276 118.347 92.3692 117.882 92.1452C117.416 91.9211 116.914 91.8225 116.395 91.8584C115.875 91.8942 115.392 92.0466 114.962 92.3244C114.532 92.6022 114.201 92.9965 113.968 93.5073C113.735 94.0181 113.636 94.6275 113.681 95.3444C113.744 96.4109 114.066 97.2084 114.64 97.7551C115.213 98.3017 115.911 98.5526 116.735 98.4989C117.255 98.463 117.738 98.3107 118.186 98.0329Z" fill="#141046"/>
<path d="M131.476 89.3491L132.058 99.2068L130.017 99.3233L129.945 98.1583C129.649 98.5795 129.246 98.929 128.745 99.1889C128.243 99.4488 127.697 99.6011 127.115 99.637C126.336 99.6818 125.637 99.5652 125.001 99.2785C124.365 98.9917 123.855 98.5436 123.47 97.9342C123.085 97.3249 122.861 96.5721 122.807 95.676L122.467 89.8778L124.491 89.7613L124.813 95.2547C124.867 96.133 125.127 96.8051 125.592 97.2442C126.058 97.6923 126.676 97.8895 127.437 97.8446C128.198 97.7998 128.79 97.531 129.21 97.0292C129.631 96.5273 129.811 95.8373 129.757 94.9591L129.434 89.4656L131.476 89.3491Z" fill="#141046"/>
<defs>
<filter id="filter0_d_74_145" x="0" y="0" width="201.578" height="183.606" filterUnits="userSpaceOnUse" color-interpolation-filters="sRGB">
<feFlood flood-opacity="0" result="BackgroundImageFix"/>
<feColorMatrix in="SourceAlpha" type="matrix" values="0 0 0 0 0 0 0 0 0 0 0 0 0 0 0 0 0 0 127 0" result="hardAlpha"/>
<feOffset/>
<feGaussianBlur stdDeviation="9"/>
<feComposite in2="hardAlpha" operator="out"/>
<feColorMatrix type="matrix" values="0 0 0 0 0 0 0 0 0 0 0 0 0 0 0 0 0 0 0.11 0"/>
<feBlend mode="normal" in2="BackgroundImageFix" result="effect1_dropShadow_74_145"/>
<feBlend mode="normal" in="SourceGraphic" in2="effect1_dropShadow_74_145" result="shape"/>
</filter>
</defs>
</svg>
