<svg width="748" height="546" viewBox="0 0 747.6309204101562 545.6052856445312" fill="none" xmlns="http://www.w3.org/2000/svg">
  <svg x="0" y="0" width="747.631" height="537.138" viewBox="0 0 747.631 537.138" preserveAspectRatio="none" overflow="visible">
<path id="l0-Vector" d="M180.357 137.404C198.475 115.672 209.804 88.9579 225.458 65.2995C241.113 41.641 263.475 19.8645 291.203 16.7548C319.87 13.5376 347.606 30.9051 376.399 29.2203C411.64 27.1502 442.277 -3.0233 477.429 0.247664C501.968 2.53286 522.226 20.8592 537.415 40.7359C552.604 60.6126 564.882 83.1509 583.304 99.9089C609.517 123.747 644.893 133.111 676.963 147.602C709.034 162.093 741.382 186.442 746.809 221.92C749.604 240.157 744.759 258.609 739.958 276.397C726.525 326.17 713.1 375.942 699.666 425.715C692.126 453.648 683.94 482.791 664.497 503.841C638.328 532.169 596.755 539.876 558.846 536.336C520.936 532.796 484.513 519.757 447.015 513.018C397.257 504.065 345.6 506.377 296.791 519.739C274.384 525.869 251.967 534.382 228.808 533.226C205.648 532.07 180.957 517.848 176.479 494.53C170.291 462.305 204.17 431.351 195.17 399.834C187.951 374.562 157.26 365.206 131.611 366.819C105.961 368.433 79.9091 376.74 55.0658 370.037C24.7237 361.846 2.99695 331.054 0.319175 299.016C-2.34964 266.979 11.9617 234.995 34.1272 212.242C52.6209 193.252 81.7719 172.65 108.693 170.992C137.907 169.2 160.574 161.134 180.357 137.404Z" fill="var(--fill-0, #FEF8DE)"/>
  </svg>
  <svg x="144.978" y="22.271" width="28.455" height="44.148" viewBox="0 0 28.4554 44.1482" preserveAspectRatio="none" overflow="visible">
<path id="l1-Vector" d="M13.8687 0.370851C12.8925 6.1152 9.74902 18.034 0.309634 21.5022C-0.0485967 21.6366 -0.111283 22.0488 0.202169 22.2549C2.8889 23.9666 11.8178 30.5802 13.9045 43.7716C13.9851 44.2555 14.8001 44.2824 14.9076 43.7985C16.2151 37.9018 19.8333 26.0546 28.1711 22.5238C28.5114 22.3804 28.5561 21.9771 28.2516 21.7889C25.8157 20.2655 17.9794 14.3867 14.8628 0.361894C14.7642 -0.130991 13.9493 -0.113073 13.8687 0.370851Z" fill="var(--fill-0, #FFCD01)"/>
  </svg>
  <svg x="50.698" y="262.837" width="24.558" height="30.409" viewBox="0 0 24.5582 30.4088" preserveAspectRatio="none" overflow="visible">
<path id="l2-Vector" d="M11.9622 0.252054C11.1204 4.20409 8.40679 12.4129 0.265993 14.8056C-0.0474592 14.8952 -0.0922709 15.182 0.176402 15.3253C2.49595 16.5083 10.2069 21.0518 11.998 30.1477C12.0607 30.4883 12.7682 30.4972 12.8667 30.1656C13.9951 26.1061 17.1207 17.9511 24.3122 15.5136C24.6078 15.415 24.6436 15.1372 24.3839 15.0027C22.2793 13.9542 15.5176 9.90363 12.8309 0.252054C12.7414 -0.088484 12.0339 -0.0795225 11.9622 0.252054Z" fill="var(--fill-0, #FFCD01)"/>
  </svg>
  <svg x="537.283" y="370.65" width="24.558" height="30.412" viewBox="0 0 24.5581 30.4122" preserveAspectRatio="none" overflow="visible">
<path id="l3-Vector" d="M11.9621 0.255404C11.1203 4.20744 8.40675 12.4162 0.265961 14.8089C-0.0474912 14.8985 -0.0922482 15.1853 0.176425 15.3287C2.49597 16.5116 10.2068 21.0551 11.998 30.1511C12.0607 30.4916 12.7682 30.5006 12.8667 30.169C13.9951 26.1094 17.1207 17.9544 24.3122 15.5169C24.6077 15.4183 24.6435 15.1405 24.3838 15.0061C22.2792 13.9576 15.5176 9.90698 12.8308 0.255404C12.7413 -0.0851346 12.0338 -0.0851346 11.9621 0.255404Z" fill="var(--fill-0, #FFCD01)"/>
  </svg>
  <svg x="664.527" y="23.092" width="24.433" height="44.325" viewBox="0 0 24.4328 44.3251" preserveAspectRatio="none" overflow="visible">
<path id="l4-Vector" d="M11.8995 0.374172C11.0577 6.13644 8.36198 18.1001 0.265961 21.5861C-0.0474912 21.7206 -0.0922482 22.1328 0.176425 22.3389C2.47806 24.0595 10.1532 30.6911 11.9354 43.9452C11.998 44.438 12.7055 44.456 12.7951 43.972C13.9235 38.0574 17.0222 26.1655 24.1868 22.6167C24.4823 22.4733 24.5182 22.0701 24.2585 21.8729C22.1629 20.3405 15.437 14.4438 12.7682 0.365216C12.6607 -0.127669 11.9711 -0.118712 11.8995 0.374172Z" fill="var(--fill-0, #FFCD01)"/>
  </svg>
  <svg x="71.464" y="127.708" width="40.122" height="60.634" viewBox="0 0 40.1219 60.6338" preserveAspectRatio="none" overflow="visible">
<g id="l5-Group">
<path id="l5-Vector" d="M20.2848 60.6338C27.1847 60.6338 32.7781 57.5283 32.7781 53.6975C32.7781 49.8667 27.1847 46.7613 20.2848 46.7613C13.385 46.7613 7.79152 49.8667 7.79152 53.6975C7.79152 57.5283 13.385 60.6338 20.2848 60.6338Z" fill="var(--fill-0, #262145)"/>
<path id="l5-Vector_2" d="M20.0609 0C8.98266 0 0 8.98842 0 20.0738C0 28.8113 12.4486 44.4671 17.7325 50.7133C18.9505 52.1561 21.1714 52.1561 22.3894 50.7133C27.6733 44.4582 40.1219 28.8024 40.1219 20.0738C40.1219 8.97946 31.1392 0 20.0609 0ZM20.0609 28.0675C15.6458 28.0675 12.0724 24.4919 12.0724 20.0738C12.0724 15.6558 15.6547 12.0801 20.0609 12.0801C24.4761 12.0801 28.0495 15.6648 28.0495 20.0738C28.0495 24.4829 24.4672 28.0675 20.0609 28.0675Z" fill="var(--fill-0, #FC78BA)"/>
</g>
  </svg>
  <svg x="657.082" y="108.937" width="32.133" height="48.563" viewBox="0 0 32.1333 48.5626" preserveAspectRatio="none" overflow="visible">
<g id="l6-Group">
<path id="l6-Vector" d="M16.2547 48.5626C21.7845 48.5626 26.2672 46.075 26.2672 43.0064C26.2672 39.9379 21.7845 37.4503 16.2547 37.4503C10.7249 37.4503 6.24212 39.9379 6.24212 43.0064C6.24212 46.075 10.7249 48.5626 16.2547 48.5626Z" fill="var(--fill-0, #262145)"/>
<path id="l6-Vector_2" d="M16.0667 0C7.19154 0 0 7.19612 0 16.077C0 23.067 9.96776 35.6132 14.2038 40.6137C15.18 41.7697 16.9533 41.7697 17.9295 40.6137C22.1566 35.6042 32.1333 23.067 32.1333 16.077C32.1333 7.19612 24.9419 0 16.0667 0ZM16.0667 22.4755C12.5292 22.4755 9.66331 19.6078 9.66331 16.077C9.66331 12.5462 12.5292 9.66951 16.0667 9.66951C19.6042 9.66951 22.47 12.5372 22.47 16.077C22.47 19.6168 19.6042 22.4755 16.0667 22.4755Z" fill="var(--fill-0, #96FBB0)"/>
</g>
  </svg>
  <svg x="92.402" y="65.954" width="577.96" height="309.784" viewBox="0 0 577.96 309.784" preserveAspectRatio="none" overflow="visible">
<g id="l7-Group">
<path id="l7-Vector" d="M2.88852 124.664C2.37804 126.089 1.98401 127.522 1.67952 128.974" stroke="var(--stroke-0, #141046)" stroke-width="2" stroke-miterlimit="10"/>
<path id="l7-Vector_2" d="M0.998905 137.846C1.6079 150.849 8.93375 163.817 18.5522 173.11C31.4575 185.575 48.0346 193.363 62.9818 203.301C77.929 213.24 92.106 226.691 95.6883 244.282C98.9034 260.037 93.2881 277.646 100.936 291.787C111.137 310.651 138.13 311.548 158.647 305.346C208.218 290.372 246.127 250.788 291.891 226.547C335.703 203.337 387.064 194.68 436.061 202.244C453.015 204.861 470.013 209.368 487.055 207.495C504.098 205.622 521.759 195.308 525.7 178.612C529.855 160.985 517.836 143.743 516.027 125.721C514.505 110.531 520.308 95.6462 526.416 81.6573C532.524 67.6683 539.151 53.3478 539.402 38.0773C539.653 22.8158 531.557 6.20114 516.914 1.89064C497.48 -3.82683 477.553 17.0625 479.264 37.2618C480.974 57.4522 498.438 73.5113 517.648 79.9098C534.046 85.3763 551.609 85.2419 568.965 84.2472" stroke="var(--stroke-0, #141046)" stroke-width="2" stroke-miterlimit="10" stroke-dasharray="9.96 9.96"/>
<path id="l7-Vector_3" d="M573.425 83.9604C574.92 83.8618 576.407 83.7633 577.894 83.6647" stroke="var(--stroke-0, #141046)" stroke-width="2" stroke-miterlimit="10"/>
</g>
  </svg>
  <svg x="511.039" y="440.558" width="66.534" height="53.749" viewBox="0 0 66.534 53.7485" preserveAspectRatio="none" overflow="visible">
<g id="l8-Group">
<path id="l8-Vector" d="M62.092 53.7482H4.4347C0.90613 53.7482 -1.20743 49.823 0.74493 46.8747L19.3818 18.61L30.3348 2.00427C32.1081 -0.693152 36.0844 -0.648311 37.7949 2.09392L45.461 14.3533L51.1032 23.3776L65.8533 46.9643C67.6982 49.9217 65.5757 53.7482 62.092 53.7482Z" fill="var(--fill-0, #4834EA)"/>
<path id="l8-Vector_2" d="M51.0943 23.3687C49.9479 23.6823 48.7209 23.6913 47.5836 23.297C46.1775 22.822 44.9954 21.8542 43.6878 21.1462C42.3803 20.4383 40.7772 19.9812 39.4249 20.5995C36.971 21.7287 36.8009 25.6001 34.3291 26.6844C32.8603 27.3207 31.1229 26.6755 29.8959 25.6449C28.669 24.6143 27.7824 23.2432 26.6808 22.0872C24.7643 20.1067 22.1223 18.9058 19.3819 18.6011L30.3259 1.99541C32.1081 -0.702009 36.0755 -0.657223 37.786 2.08501L51.0943 23.3687Z" fill="var(--fill-0, #FFFFFC)"/>
<path id="l8-Vector_3" d="M62.092 53.7483L35.9053 48.0487L47.306 17.3017L51.0943 23.3687L65.8444 46.9555C67.6982 49.9217 65.5758 53.7483 62.092 53.7483Z" fill="var(--fill-0, #1E1349)"/>
</g>
  </svg>
  <svg x="544.308" y="454.501" width="52.84" height="42.682" viewBox="0 0 52.8397 42.6818" preserveAspectRatio="none" overflow="visible">
<g id="l9-Group">
<path id="l9-Vector" d="M49.3145 42.6818H3.52369C0.720539 42.6818 -0.954216 39.5632 0.586177 37.2243L15.3901 14.7756L24.0861 1.5842C25.5011 -0.557612 28.6535 -0.521751 30.0059 1.6559L40.5737 18.5574L52.2968 37.2959C53.7655 39.6349 52.0819 42.6818 49.3145 42.6818Z" fill="var(--fill-0, #4834EA)"/>
<path id="l9-Vector_2" d="M40.5827 18.5574C39.6692 18.8083 38.693 18.8083 37.7975 18.5036C36.678 18.1272 35.7376 17.3565 34.6987 16.7919C33.6598 16.2273 32.3882 15.8599 31.3135 16.3618C29.3611 17.2579 29.2268 20.3317 27.2655 21.201C26.1012 21.7118 24.713 21.192 23.7458 20.3765C22.7696 19.5521 22.0711 18.4677 21.1934 17.5537C19.6709 15.9764 17.5753 15.0265 15.3991 14.7845L24.0951 1.59317C25.5101 -0.548642 28.6625 -0.512781 30.0148 1.66487L40.5827 18.5574Z" fill="var(--fill-0, #FFFFFC)"/>
</g>
  </svg>
  <svg x="403.944" y="217.827" width="122.999" height="148.517" viewBox="0 0 122.999 148.517" preserveAspectRatio="none" overflow="visible">
<path id="l10-Vector" d="M114.341 141.841C111.314 143.302 105.135 144.565 97.1463 145.578C66.3653 149.503 8.7887 149.826 1.72259 144.53C-7.17048 137.862 20.5208 14.1391 35.6381 4.35314C39.292 1.97833 45.0775 0.7506 51.7585 0.266677C65.3892 -0.737015 82.7006 1.30622 93.1341 2.8476C98.7225 3.67207 102.332 4.36211 102.332 4.36211C102.332 4.36211 106.926 19.7849 111.261 38.3622C113.679 48.7038 116.016 60.0222 117.449 70.2115C121.461 98.6734 129.02 134.717 114.341 141.841Z" fill="var(--fill-0, #F9510D)"/>
  </svg>
  <svg x="473.623" y="218.227" width="40.032" height="31.456" viewBox="0 0 40.0322 31.4558" preserveAspectRatio="none" overflow="visible">
<path id="l11-Vector" d="M40.0322 31.4558L0 0.314466C13.6307 -0.689226 13.0216 0.896962 23.4551 2.43835C29.0435 3.26281 32.6527 3.95285 32.6527 3.95285C32.6527 3.95285 35.6977 12.8785 40.0322 31.4558Z" fill="var(--fill-0, #262145)"/>
  </svg>
  <svg x="402.353" y="160.292" width="131.73" height="76.44" viewBox="0 0 131.73 76.4402" preserveAspectRatio="none" overflow="visible">
<path id="l12-Vector" d="M120.151 72.239C117.312 74.4973 113.935 75.8684 110.425 76.2986C107.702 76.6212 104.908 76.3971 102.212 75.5816L74.2076 67.104L65.1264 64.3528L0 44.6285L18.3146 8.854L22.8462 0L84.3455 11.5783L98.1463 14.1772L112.52 16.8835C119.721 18.2367 125.685 23.2373 128.336 30.066C132.966 42.0296 134.972 60.4008 120.151 72.239Z" fill="var(--fill-0, #F9510D)"/>
  </svg>
  <svg x="493.734" y="183.64" width="35.799" height="44.2" viewBox="0 0 35.7989 44.1997" preserveAspectRatio="none" overflow="visible">
<g id="l13-Group">
<path id="l13-Vector" d="M23.4878 23.3749C24.473 19.0511 22.7696 14.9752 19.6832 14.271C16.5969 13.5669 13.2962 16.5012 12.311 20.8249C11.3258 25.1486 13.0292 29.2245 16.1156 29.9287C19.202 30.6328 22.5026 27.6986 23.4878 23.3749Z" stroke="var(--stroke-0, #262145)" stroke-width="2.6478" stroke-miterlimit="10"/>
<path id="l13-Vector_2" d="M31.4688 25.1957C33.8603 14.7 29.7238 4.80556 22.2296 3.0958C14.7355 1.38604 6.7216 8.5084 4.33014 19.0041C1.93867 29.4997 6.0752 39.3942 13.5693 41.1039C21.0635 42.8137 29.0773 35.6913 31.4688 25.1957Z" stroke="var(--stroke-0, #262145)" stroke-width="2.6478" stroke-miterlimit="10"/>
</g>
  </svg>
  <svg x="467.112" y="171.861" width="33.387" height="55.526" viewBox="0 0 33.3867 55.5257" preserveAspectRatio="none" overflow="visible">
<g id="l14-Group">
<path id="l14-Vector" d="M33.3867 2.60781C26.4997 5.06327 16.0393 11.0406 11.5435 25.2805C7.94331 36.7154 8.45382 48.1503 9.44791 55.5257L0.36675 52.7745C-0.376578 44.6733 -0.251224 33.776 3.25048 22.6637C6.74323 11.5783 13.1466 4.49869 19.5768 0L33.3867 2.60781Z" fill="var(--fill-0, #262145)"/>
</g>
  </svg>
  <svg x="321.008" y="199.471" width="47.313" height="38.14" viewBox="0 0 47.3133 38.1403" preserveAspectRatio="none" overflow="visible">
<path id="l15-Vector" d="M47.3133 0H0V38.1403H47.3133V0Z" fill="var(--fill-0, #F99B30)"/>
  </svg>
  <svg x="234.19" y="273.153" width="208.615" height="257.059" viewBox="0 0 208.615 257.059" preserveAspectRatio="none" overflow="visible">
<g id="l16-Group">
<g id="l16-Group_2">
<path id="l16-Vector" d="M161.661 154.371C182.325 154.371 199.078 137.608 199.078 116.93C199.078 96.2519 182.325 79.4889 161.661 79.4889C140.996 79.4889 124.243 96.2519 124.243 116.93C124.243 137.608 140.996 154.371 161.661 154.371Z" fill="var(--fill-0, #FFB213)"/>
<path id="l16-Vector_2" d="M201.881 252.088C200.296 257.187 135.483 261.408 126.518 248.575C126.518 248.575 126.85 240.94 127.27 230.15C127.682 219.396 128.184 205.488 128.488 192.879C128.587 188.972 128.677 185.181 128.73 181.659C128.883 172.599 128.874 165.233 128.569 161.81C127.387 148.448 124.431 120.802 124.431 120.802L199.051 116.93C199.051 116.93 200.967 154.165 200.063 184.195C199.955 187.906 199.794 191.508 199.588 194.922C199.436 197.396 199.257 199.771 199.051 202.011C199.051 202.011 196.248 228.609 197.063 232.014C197.26 232.839 197.734 234.138 198.326 235.715C200.179 240.626 203.09 248.226 201.881 252.088Z" fill="var(--fill-0, #FFCD01)"/>
<path id="l16-Vector_3" d="M128.99 211.179C128.99 211.179 121.064 196.993 123.993 192.79C126.921 188.587 199.848 178.577 202.168 185.423C204.586 192.548 200.179 206.33 200.179 206.33L128.99 211.179Z" fill="var(--fill-0, #96FBB0)"/>
</g>
<g id="l16-Group_3">
<path id="l16-Vector_4" d="M78.6406 155.985C99.3056 155.985 116.058 139.222 116.058 118.543C116.058 97.865 99.3056 81.1019 78.6406 81.1019C57.9757 81.1019 41.2234 97.865 41.2234 118.543C41.2234 139.222 57.9757 155.985 78.6406 155.985Z" fill="var(--fill-0, #FFB213)"/>
<path id="l16-Vector_5" d="M113.013 133.339C113.013 133.339 101.952 158.843 96.8566 171.246C96.4626 172.223 95.979 173.549 95.4237 175.18C94.3222 178.424 92.9609 182.851 91.4384 187.968C88.5189 197.781 85.0619 210.139 81.9274 221.547C81.0229 224.809 80.1542 227.982 79.3392 231.011C75.6942 244.426 72.9806 254.696 72.9806 254.696C60.6127 264.276 -0.00895478 240.922 9.92189e-07 235.581C0.0179125 230.249 8.77664 220.83 10.5678 217.828C10.9798 217.147 11.553 215.283 12.2157 212.801C12.6097 211.313 13.0307 209.601 13.4605 207.782C15.4666 199.278 17.5981 188.605 17.5981 188.605C19.04 181.83 21.1446 173.917 23.5358 165.735C24.306 163.118 25.0941 160.465 25.918 157.822C33.6558 132.532 42.934 107.404 42.934 107.404L113.013 133.339Z" fill="var(--fill-0, #FFCD01)"/>
<path id="l16-Vector_6" d="M14.9919 186.991C14.9919 186.991 13.2814 170.825 17.6249 168.118C21.9685 165.412 91.107 187.251 93.5072 194.376C95.9163 201.5 84.5067 212.899 84.5067 212.899L14.9919 186.991Z" fill="var(--fill-0, #FC7BB9)"/>
</g>
<path id="l16-Vector_7" d="M199.069 116.93L128.408 134.1C128.408 134.1 124.7 123.194 120.536 123.418C116.38 123.651 113.013 133.348 113.013 133.348L41.2234 118.561C41.8592 103.102 59.2513 34.3317 59.2513 34.3317L195.54 36.0523C202.311 51.4572 199.069 116.93 199.069 116.93Z" fill="var(--fill-0, #5143DE)"/>
<path id="l16-Vector_8" d="M56.5019 34.3227L29.6705 111.374C28.6406 114.34 30.4138 117.54 33.4677 118.239L110.765 135.884C113.219 136.448 115.726 135.185 116.747 132.882L121.198 122.791L123.231 132.765C123.796 135.525 126.429 137.354 129.214 136.914L204.183 124.969C206.932 124.53 208.866 122.02 208.589 119.251C206.735 100.916 199.884 37.755 193.113 36.0523C185.205 34.0539 56.5019 34.3227 56.5019 34.3227Z" fill="var(--fill-0, #5143DE)"/>
<path id="l16-Vector_9" d="M120.536 72.1046C140.434 72.1046 156.565 55.9634 156.565 36.0523C156.565 16.1412 140.434 0 120.536 0C100.637 0 84.5067 16.1412 84.5067 36.0523C84.5067 55.9634 100.637 72.1046 120.536 72.1046Z" fill="var(--fill-0, #5143DE)"/>
</g>
  </svg>
  <svg x="355.971" y="467.268" width="113.273" height="78.338" viewBox="0 0 113.273 78.3379" preserveAspectRatio="none" overflow="visible">
<g id="l17-Group">
<path id="l17-Vector" d="M104.182 58.753L110.801 57.8927L113.273 71.7741C113.273 71.7741 77.8166 84.1052 44.734 74.9644C44.734 74.9644 17.213 81.1927 1.34614e-06 72.3566L0.66272 58.753H104.182Z" fill="var(--fill-0, #732A39)"/>
<path id="l17-Vector_2" d="M0.662663 58.7529C0.662663 58.7529 69.9265 69.9728 107.299 58.3497C107.299 58.3497 109.69 37.29 86.5306 35.0227C81.7751 25.9537 82.4646 1.24671 82.4646 1.24671C54.7913 -4.34529 56.1167 11.2209 56.1167 11.2209C48.0744 9.7064 31.0138 7.57356 8.0691 12.8519C4.648 13.6316 2.29256 16.777 2.51646 20.281C2.82095 25.0934 3.51061 31.4829 5.04205 34.0459C5.05996 34.0459 -2.17632 46.6369 0.662663 58.7529Z" fill="var(--fill-0, #994237)"/>
<path id="l17-Vector_3" d="M56.2691 15.9528C56.2781 15.9886 56.287 16.0334 56.296 16.0692C56.4572 16.6965 56.6183 17.3238 56.7885 17.978C56.7885 17.987 56.7975 18.0049 56.7975 18.0139C63.1113 42.3176 86.5396 35.0229 86.5396 35.0229C81.7841 25.9538 82.4737 1.24684 82.4737 1.24684C54.8004 -4.34516 55.1944 10.3608 56.2691 15.9528Z" fill="var(--fill-0, #732A39)"/>
<path id="l17-Vector_4" d="M83.7185 24.8157C83.7185 24.8157 72.3178 24.8694 66.6041 30.4883" stroke="var(--stroke-0, #232121)" stroke-width="3.4429" stroke-miterlimit="10"/>
<path id="l17-Vector_5" d="M82.6886 14.2231C82.6886 14.2231 71.2879 14.2769 65.5741 19.8958" stroke="var(--stroke-0, #232121)" stroke-width="3.4429" stroke-miterlimit="10"/>
</g>
  </svg>
  <svg x="204.807" y="454.651" width="117.455" height="84.869" viewBox="0 0 117.455 84.8693" preserveAspectRatio="none" overflow="visible">
<g id="l18-Group">
<path id="l18-Vector" d="M10.9619 53.6162L4.54955 51.7611L0 65.1049C0 65.1049 33.1632 82.6964 67.2488 78.6995C67.2488 78.6995 93.4983 89.0501 111.858 82.9384L113.273 69.3975L10.9619 53.6162Z" fill="var(--fill-0, #732A39)"/>
<path id="l18-Vector_2" d="M113.273 69.3795C113.273 69.3795 43.1041 69.9172 7.94376 52.729C7.94376 52.729 8.78561 31.5439 32.0169 32.8433C38.0978 24.5987 41.1697 0.0799634 41.1697 0.0799634C69.3714 -1.22842 65.6905 13.9524 65.6905 13.9524C73.8672 13.6836 91.0533 14.1765 112.932 22.8871C116.192 24.1865 118.046 27.6457 117.285 31.069C116.246 35.7827 114.598 41.9841 112.69 44.2872C112.69 44.3052 117.921 57.846 113.273 69.3795Z" fill="var(--fill-0, #994237)"/>
<path id="l18-Vector_3" d="M64.8308 18.6124C64.8129 18.6482 64.8039 18.6841 64.786 18.7289C64.5352 19.3204 64.2755 19.9208 64.0158 20.5391C64.0158 20.5481 64.0069 20.557 64.0069 20.566C54.0659 43.624 32.0169 32.8523 32.0169 32.8523C38.0978 24.6077 41.1697 0.0889112 41.1697 0.0889112C69.3714 -1.21947 66.7384 13.2534 64.8308 18.6124Z" fill="var(--fill-0, #732A39)"/>
<path id="l18-Vector_4" d="M36.3515 23.1918C36.3515 23.1918 47.6178 24.9751 52.4002 31.4095" stroke="var(--stroke-0, #232121)" stroke-width="3.4429" stroke-miterlimit="10"/>
<path id="l18-Vector_5" d="M38.9845 12.886C38.9845 12.886 50.2508 14.6694 55.0332 21.1038" stroke="var(--stroke-0, #232121)" stroke-width="3.4429" stroke-miterlimit="10"/>
</g>
  </svg>
  <svg x="271.599" y="181.907" width="55.669" height="55.705" viewBox="0 0 55.6691 55.7049" preserveAspectRatio="none" overflow="visible">
<path id="l19-Vector" d="M27.8346 55.7049C43.2072 55.7049 55.6691 43.235 55.6691 27.8525C55.6691 12.47 43.2072 0 27.8346 0C12.462 0 0 12.47 0 27.8525C0 43.235 12.462 55.7049 27.8346 55.7049Z" fill="var(--fill-0, #262145)"/>
  </svg>
  <svg x="201.387" y="161.319" width="103.832" height="76.289" viewBox="0 0 103.832 76.2892" preserveAspectRatio="none" overflow="visible">
<path id="l20-Vector" d="M103.832 21.161L100.671 51.2628L98.0471 76.2835L80.4669 76.2028L26.1053 75.9608C18.9945 75.9608 0.420197 80.3072 0.0171875 57.3746C-0.385822 34.442 6.33993 0.818349 15.8241 0.0207716C25.3262 -0.767844 103.832 21.161 103.832 21.161Z" fill="var(--fill-0, #262145)"/>
  </svg>
  <svg x="281.854" y="209.759" width="20.204" height="27.852" viewBox="0 0 20.2042 27.8525" preserveAspectRatio="none" overflow="visible">
<path id="l21-Vector" d="M20.2042 2.82288L17.5802 27.8525L0 27.7718L10.1021 0L20.2042 2.82288Z" fill="var(--fill-0, black)"/>
  </svg>
  <svg x="184.667" y="166.163" width="33.131" height="54.629" viewBox="0 0 33.1308 54.6291" preserveAspectRatio="none" overflow="visible">
<path id="l22-Vector" d="M4.6729 5.18721C4.6729 5.18721 7.65522 -0.790134 18.5454 0.088097C29.4357 0.966328 33.2956 16.4339 33.1254 26.2737C32.9463 36.1135 31.191 55.802 14.5064 54.5743C-2.17822 53.3465 0.105483 39.4561 0.105483 35.4145C0.105483 31.3728 4.6729 5.18721 4.6729 5.18721Z" fill="var(--fill-0, #96FBB0)"/>
  </svg>
  <svg x="124.53" y="155.78" width="70.914" height="61.795" viewBox="0 0 70.9144 61.7946" preserveAspectRatio="none" overflow="visible">
<path id="l23-Vector" d="M70.8279 26.8972C71.4996 19.7728 68.2218 12.8007 62.2214 8.91139C58.4779 6.49178 53.7403 4.08112 48.1967 2.6652C34.1003 -0.937339 10.9138 0.155979 10.9138 0.155979C10.9138 0.155979 0.569889 -0.00533211 0.0146312 8.30201C-0.540627 16.5556 14.8275 19.5935 25.7894 20.5345C25.7894 20.5345 18.3202 28.573 22.7712 36.7728C27.2222 44.9726 27.2223 43.6911 27.2223 43.6911C27.2223 43.6911 21.4816 53.5309 33.0793 58.9257C44.6681 64.3116 62.5886 61.2737 65.8664 56.7033C67.9889 53.7281 69.8159 37.7586 70.8279 26.8972Z" fill="var(--fill-0, #FFCD01)"/>
  </svg>
  <svg x="157.721" y="162.334" width="30.44" height="44.899" viewBox="0 0 30.4399 44.8988" preserveAspectRatio="none" overflow="visible">
<path id="l24-Vector" d="M10.6793 0.900059C5.51183 6.47414 2.22508 13.7688 1.45488 21.3324C1.27577 23.1068 1.23101 24.917 1.64297 26.6466C2.05494 28.3761 2.96839 30.043 4.40131 31.0915C6.52383 32.6508 9.53299 32.6329 11.9242 31.5127C14.3064 30.3925 17.5036 26.0641 17.5036 26.0641C17.5036 26.0641 17.4857 38.8253 29.9611 43.6645" stroke="var(--stroke-0, #262145)" stroke-width="2.6478" stroke-miterlimit="10"/>
  </svg>
  <svg x="158.021" y="192.786" width="13.371" height="18.398" viewBox="0 0 13.3713 18.3983" preserveAspectRatio="none" overflow="visible">
<path id="l25-Vector" d="M0.0675704 1.32217C0.0675704 1.32217 11.5399 1.90466 12.0145 6.18828C12.4802 10.4629 7.91283 16.261 1.59006 17.0855" stroke="var(--stroke-0, #262145)" stroke-width="2.6478" stroke-miterlimit="10"/>
  </svg>
  <svg x="274.097" y="186.674" width="179.222" height="157.395" viewBox="0 0 179.222 157.395" preserveAspectRatio="none" overflow="visible">
<g id="l26-Group">
<path id="l26-Vector" d="M34.3908 0C34.3908 0 4.99793 78.8257 1.55891 102.896C-1.8801 126.967 -2.25619 144.155 29.0442 148.744C60.3536 153.332 132.51 157.15 132.51 157.15C132.51 157.15 170.304 161.353 172.211 134.988C174.119 108.632 180.226 17.5467 179.08 13.9979C177.934 10.4491 100.055 11.2109 71.0378 44.4492C71.0378 44.4492 60.3536 3.30681 34.3908 0Z" fill="var(--fill-0, #252145)"/>
<g id="l26-Group_2">
<path id="l26-Vector_2" d="M90.5703 46.4387C92.263 46.4387 93.6869 47.7112 93.8839 49.396L100.305 105.415H83.4684L87.2478 49.5484C87.3642 47.8009 88.815 46.4387 90.5703 46.4387Z" fill="var(--fill-0, #FC7BB9)"/>
<path id="l26-Vector_3" d="M89.6121 101.902L88.833 120.9H94.2243V102.52L89.6121 101.902Z" fill="var(--fill-0, #FC7BB9)"/>
</g>
<g id="l26-Group_3">
<path id="l26-Vector_4" d="M50.3948 43.795C49.2574 43.795 48.2096 44.4313 47.6901 45.435L22.8648 92.9849L40.5703 98.1826L53.3591 47.5947C53.8517 45.668 52.3919 43.795 50.3948 43.795Z" fill="var(--fill-0, #96FBB0)"/>
<path id="l26-Vector_5" d="M35.1431 93.2627L30.3607 109.922L24.6918 108.255L30.1099 92.3666L35.1431 93.2627Z" fill="var(--fill-0, #96FBB0)"/>
</g>
</g>
  </svg>
  <svg x="420.301" y="41.106" width="89.278" height="142.718" viewBox="0 0 89.2778 142.718" preserveAspectRatio="none" overflow="visible">
<g id="l27-Group">
<path id="l27-Vector" d="M0 56.1941C0 56.1941 35.6439 -1.03427 67.4817 0.0142334C99.3105 1.06273 87.8381 46.8472 84.5872 61.6517C83.1095 68.3639 58.4095 136.597 37.05 136.355C15.6995 136.113 0 56.1941 0 56.1941Z" fill="var(--fill-0, #FFCD01)"/>
<path id="l27-Vector_2" d="M1.86276 88.2227C1.86276 88.2227 20.6341 22.7855 59.6454 11.0907C80.4855 4.95204 81.7662 38.4772 74.5031 62.9511C69.5506 79.6644 38.877 142.718 38.877 142.718L1.86276 88.2227Z" fill="var(--fill-0, #F99B30)"/>
</g>
  </svg>
  <svg x="317.121" y="12.725" width="64.319" height="100.874" viewBox="0 0 64.3188 100.874" preserveAspectRatio="none" overflow="visible">
<g id="l28-Group">
<path id="l28-Vector" d="M64.1233 75.7216C64.1233 75.7216 67.3921 21.1369 47.1969 3.48267C33.2886 -8.97387 14.983 14.1111 8.27512 39.0779C1.56725 64.0447 0 98.6363 0 98.6363L64.1233 75.7216Z" fill="var(--fill-0, #FFCD01)"/>
<path id="l28-Vector_2" d="M49.7582 72.379C49.7582 72.379 55.4182 20.0077 38.7694 11.7542C22.1206 3.5006 9.05423 54.8413 8.6154 89.0474C8.17657 123.254 49.7582 72.379 49.7582 72.379Z" fill="var(--fill-0, #F99B30)"/>
</g>
  </svg>
  <svg x="291.03" y="79.924" width="176.773" height="144.37" viewBox="0 0 176.773 144.37" preserveAspectRatio="none" overflow="visible">
<path id="l29-Vector" d="M175.867 100.872C175.867 100.872 185.728 34.0187 140.394 13.201C95.0506 -7.62559 43.5548 -4.99089 26.0553 29.5917L18.1742 47.6223C18.1742 47.6223 -4.56454 59.3619 0.826834 91.0409C6.21821 122.72 50.8448 134.334 106.863 143.045C162.881 151.755 174.99 115.228 175.867 100.872Z" fill="var(--fill-0, #FFCD01)"/>
  </svg>
  <svg x="407.946" y="94" width="22.382" height="16.497" viewBox="0 0 22.3822 16.4967" preserveAspectRatio="none" overflow="visible">
<path id="l30-Vector" d="M5.73724 5.75039C5.73724 5.75039 10.9137 5.22166 16.6454 10.7599" stroke="var(--stroke-0, #F99B30)" stroke-width="11.4736" stroke-miterlimit="10" stroke-linecap="round" stroke-linejoin="round"/>
  </svg>
  <svg x="341.851" y="85.538" width="22.017" height="14.031" viewBox="0 0 22.0172 14.0313" preserveAspectRatio="none" overflow="visible">
<path id="l31-Vector" d="M16.2789 5.95427C16.2789 5.95427 12.84 4.68173 5.73803 8.29323" stroke="var(--stroke-0, #F99B30)" stroke-width="11.4736" stroke-miterlimit="10" stroke-linecap="round" stroke-linejoin="round"/>
  </svg>
  <svg x="380.805" y="117.124" width="42.753" height="50.398" viewBox="0 0 42.7527 50.3983" preserveAspectRatio="none" overflow="visible">
<g id="l32-Group">
<path id="l32-Vector" d="M4.34502 9.27537C5.61674 7.5906 7.26464 5.70869 9.30655 4.01496C15.9517 -1.51431 25.5523 -1.29922 32.0094 4.45409C39.5323 11.1663 45.4341 23.2016 41.4935 36.4199C35.6275 56.1353 14.7695 50.1042 11.0708 47.2454C7.7124 44.6556 -1.55681 36.2765 0.225391 19.8321C0.628401 16.0145 2.03443 12.3492 4.34502 9.27537Z" fill="var(--fill-0, #FFFEFF)"/>
<g id="l32-Group_2">
<path id="l32-Vector_2" d="M25.221 40.5601C33.1101 40.5601 39.5054 34.1606 39.5054 26.2665C39.5054 18.3723 33.1101 11.9728 25.221 11.9728C17.3319 11.9728 10.9365 18.3723 10.9365 26.2665C10.9365 34.1606 17.3319 40.5601 25.221 40.5601Z" fill="var(--fill-0, #1F2123)"/>
<path id="l32-Vector_3" d="M21.2177 24.985C20.8684 27.4852 19.8117 28.8384 18.0653 28.5965C16.3189 28.3545 15.1904 26.132 15.5308 23.6318C15.88 21.1315 17.5727 19.3033 19.319 19.5453C21.4416 19.841 21.5669 22.4847 21.2177 24.985Z" stroke="var(--stroke-0, #FFFEFF)" stroke-width="0.8826" stroke-miterlimit="10"/>
</g>
</g>
  </svg>
  <svg x="305.021" y="101.737" width="42.753" height="50.398" viewBox="0 0 42.7527 50.3983" preserveAspectRatio="none" overflow="visible">
<g id="l33-Group">
<path id="l33-Vector" d="M4.34502 9.27539C5.61674 7.59062 7.26464 5.7087 9.30655 4.01497C15.9517 -1.5143 25.5523 -1.29923 32.0094 4.45408C39.5323 11.1663 45.4341 23.2016 41.4935 36.4199C35.6275 56.1353 14.7695 50.1042 11.0708 47.2454C7.7124 44.6555 -1.55681 36.2765 0.225391 19.8321C0.637356 16.0145 2.03443 12.3492 4.34502 9.27539Z" fill="var(--fill-0, #FFFEFF)"/>
<g id="l33-Group_2">
<path id="l33-Vector_2" d="M26.3852 40.6497C34.2743 40.6497 40.6697 34.2502 40.6697 26.3561C40.6697 18.4619 34.2743 12.0624 26.3852 12.0624C18.4961 12.0624 12.1008 18.4619 12.1008 26.3561C12.1008 34.2502 18.4961 40.6497 26.3852 40.6497Z" fill="var(--fill-0, #1F2123)"/>
<path id="l33-Vector_3" d="M22.0327 26.1052C21.6655 28.7399 20.6804 30.1916 19.0952 29.9676C17.51 29.7435 16.5249 27.4315 16.8921 24.7968C17.2593 22.1621 18.8355 20.1995 20.4206 20.4236C22.3372 20.6924 22.3999 23.4705 22.0327 26.1052Z" stroke="var(--stroke-0, #FFFEFF)" stroke-width="0.8826" stroke-miterlimit="10"/>
</g>
</g>
  </svg>
  <svg x="329.353" y="152.854" width="65.187" height="44.851" viewBox="0 0 65.1874 44.8511" preserveAspectRatio="none" overflow="visible">
<g id="l34-Group">
<path id="l34-Vector" d="M0.00268254 15.0733C0.00268254 15.0733 -0.615161 35.882 16.9023 42.2984C32.3421 47.9532 61.2512 43.813 64.9589 33.8208C68.6666 23.8287 26.0192 0 26.0192 0L0.00268254 15.0733Z" fill="var(--fill-0, #010101)"/>
<g id="l34-Clip path group">
<mask id="l34-mask0_0_11" style="mask-type:luminance" maskUnits="userSpaceOnUse" x="0" y="0" width="66" height="45">
<g id="l34-SVGID_00000089568469230636358200000011124687856208483753_">
<path id="l34-Vector_2" d="M0.00268254 15.0733C0.00268254 15.0733 -0.615161 35.882 16.9023 42.2984C32.3421 47.9532 61.2512 43.813 64.9589 33.8208C68.6666 23.8287 26.0192 0 26.0192 0L0.00268254 15.0733Z" fill="var(--fill-0, white)"/>
</g>
</mask>
<g mask="url(#l34-mask0_0_11)">
<path id="l34-Vector_3" d="M20.0995 7.42912C20.0995 7.42912 18.7562 24.2051 29.324 26.7681C39.8918 29.3311 44.2442 10.0011 44.2442 10.0011L20.0995 7.42912Z" fill="var(--fill-0, #FFFEFF)"/>
</g>
</g>
<g id="l34-Clip path group_2">
<mask id="l34-mask1_0_11" style="mask-type:luminance" maskUnits="userSpaceOnUse" x="0" y="0" width="66" height="45">
<g id="l34-SVGID_00000089568469230636358200000011124687856208483753__2">
<path id="l34-Vector_4" d="M0.00268254 15.0733C0.00268254 15.0733 -0.615161 35.882 16.9023 42.2984C32.3421 47.9532 61.2512 43.813 64.9589 33.8208C68.6666 23.8287 26.0192 0 26.0192 0L0.00268254 15.0733Z" fill="var(--fill-0, white)"/>
</g>
</mask>
<g mask="url(#l34-mask1_0_11)">
<path id="l34-Vector_5" d="M-4.26908 9.10493C-4.26908 9.10493 -1.65408 24.8504 9.1824 24.0886C20.0189 23.3179 18.3173 3.58461 18.3173 3.58461L-4.26908 9.10493Z" fill="var(--fill-0, #FFFEFF)"/>
</g>
</g>
</g>
  </svg>
  <svg x="345.135" y="205.634" width="105.651" height="31.1" viewBox="0 0 105.651 31.0996" preserveAspectRatio="none" overflow="visible">
<path id="l35-Vector" d="M0 25.4897C0 25.4897 29.2674 -16.0739 105.651 6.94827V15.1212L61.7231 31.0996L0 25.4897Z" fill="var(--fill-0, #252145)"/>
  </svg>
  <svg x="381.7" y="216" width="59.26" height="18.243" viewBox="0 0 59.2602 18.2425" preserveAspectRatio="none" overflow="visible">
<path id="l36-Vector" d="M0.635803 15.2196L58.6244 3.02291" stroke="var(--stroke-0, black)" stroke-width="6.1781" stroke-miterlimit="10"/>
  </svg>
  <svg x="438.095" y="220.758" width="72.735" height="106.813" viewBox="0 0 72.7352 106.813" preserveAspectRatio="none" overflow="visible">
<path id="l37-Vector" d="M3.19727 2.45242C3.19727 2.45242 22.4969 -8.81225 45.4236 16.9432C68.3504 42.6987 76.0345 73.8221 71.485 90.2844C70.3476 94.3978 64.992 99.9539 60.2992 102.454C41.7249 112.375 18.5832 104.713 8.8483 86.0367L0 69.0635L3.19727 2.45242Z" fill="var(--fill-0, #262145)"/>
  </svg>
  <svg x="469.727" y="255.938" width="28.166" height="34.421" viewBox="0 0 28.1658 34.4213" preserveAspectRatio="none" overflow="visible">
<path id="l38-Vector" d="M0 9.82184L2.12251 0L28.1658 17.2061V34.4213L0 9.82184Z" fill="var(--fill-0, black)"/>
  </svg>
  <svg x="422.311" y="252.84" width="88.011" height="81.304" viewBox="0 0 88.0107 81.3039" preserveAspectRatio="none" overflow="visible">
<g id="l39-Group">
<path id="l39-Vector" d="M80.472 29.9916C80.472 29.9916 48.482 9.12014 39.8039 5.20395C31.1257 1.29672 21.3102 21.6484 10.5364 41.9014C-0.237404 62.1545 18.122 67.3612 24.3373 70.8203L37.0813 77.2457C50.6582 84.0924 67.2085 82.2284 78.4748 72.0122C78.8062 71.7075 79.1375 71.4028 79.46 71.0802C89.5979 61.1867 91.6756 48.1656 80.472 29.9916Z" fill="var(--fill-0, #262145)"/>
<path id="l39-Vector_2" d="M23.1371 1.16229C23.1371 1.16229 28.645 -2.61051 37.744 3.43853C46.8431 9.49653 42.7234 24.8924 37.7977 33.4149C32.872 41.9373 21.7938 58.3011 7.79589 49.1244C-6.20198 39.9478 2.52994 28.9162 4.48229 25.3764C6.44361 21.8455 23.1371 1.16229 23.1371 1.16229Z" fill="var(--fill-0, #96FBB0)"/>
</g>
  </svg>
  <svg x="410" y="214" width="70.991" height="134.72" viewBox="0 0 70.9912 134.72" preserveAspectRatio="none" overflow="visible">
<path id="l40-Vector" d="M64.2898 6.70057C64.2898 6.70057 0.820332 8.80652 7.1431 76.5916C12.624 135.361 64.2898 127.69 64.2898 127.69" stroke="var(--stroke-0, #F9510D)" stroke-width="13.401" stroke-miterlimit="10" stroke-linecap="round" stroke-linejoin="round"/>
  </svg>
  <svg x="409.15" y="237.18" width="45.137" height="56.144" viewBox="0 0 45.1374 56.1443" preserveAspectRatio="none" overflow="visible">
<g id="l41-Group">
<path id="l41-Vector" d="M45.0114 27.7551C45.0114 27.7551 43.6859 9.72452 31.9717 3.85471C20.2576 -2.0151 6.18803 -2.71411 6.08952 12.8073C6.08952 12.8073 -3.65433 19.1789 2.5341 28.8395C2.5341 28.8395 -3.53789 35.3635 3.11625 42.1384C6.9135 46.1352 13.1736 46.2249 13.1736 46.2249C13.1736 46.2249 17.4186 55.1685 22.8548 56.1005C28.282 57.0235 46.8383 43.2138 45.0114 27.7551Z" fill="var(--fill-0, #FFCD01)"/>
<path id="l41-Vector_2" d="M6.08057 12.8073C6.08057 12.8073 13.1736 10.1009 18.1172 13.2822" stroke="var(--stroke-0, #262145)" stroke-width="2.6478" stroke-miterlimit="10"/>
<path id="l41-Vector_3" d="M2.52515 28.8395C2.52515 28.8395 5.48949 25.2459 13.1377 27.5938" stroke="var(--stroke-0, #262145)" stroke-width="2.6478" stroke-miterlimit="10"/>
</g>
  </svg>
  <svg x="346.729" y="371.578" width="12.18" height="29.817" viewBox="0 0 12.1801 29.8173" preserveAspectRatio="none" overflow="visible">
<path id="l42-Vector" d="M0.729177 1.10499L7.77736 5.75603L10.8672 29.6475" stroke="var(--stroke-0, #262145)" stroke-width="2.6478" stroke-miterlimit="10"/>
  </svg>
  <svg x="294.673" y="129.563" width="122.888" height="90.03" viewBox="0 0 122.888 90.0299" preserveAspectRatio="none" overflow="visible">
<g id="l43-Group">
<path id="l43-Vector" d="M62.8925 56.6809C62.8925 56.6809 70.5677 62.2012 74.6067 75.8048C78.6458 89.4084 96.6559 95.2962 100.695 84.2645C104.734 73.2329 99.2261 59.4411 92.7959 54.6646C86.3656 49.8791 67.1644 52.8274 62.8925 56.6809Z" fill="var(--fill-0, #F9510D)"/>
<g id="l43-Group_2">
<path id="l43-Vector_2" d="M60.6715 18.0208C69.8333 15.1083 91.9541 13.316 111.352 24.3029C115.776 26.8121 121.705 31.9829 122.771 39.8153C123.89 48.1047 116.771 56.672 109.328 60.0684C93.996 67.0584 73.7022 53.7236 63.7881 41.2402C60.5103 37.1179 58.4863 33.2285 57.3042 30.6387C55.307 33.2375 43.6198 47.9613 25.2067 48.2033C22.7707 48.2391 6.78469 48.4453 1.80528 38.5517C-3.16517 28.6671 2.58445 15.2069 13.4657 9.76726C25.9769 3.50315 45.2766 6.22744 60.6715 18.0208Z" fill="var(--fill-0, #F99B30)"/>
<path id="l43-Vector_3" d="M75.4069 17.2119C77.0522 12.7286 72.8455 7.05835 66.0111 4.54707C59.1767 2.03579 52.3026 3.63447 50.6573 8.11779C49.0121 12.6011 53.2187 18.2714 60.0531 20.7826C66.8875 23.2939 73.7616 21.6952 75.4069 17.2119Z" fill="var(--fill-0, #1F2123)"/>
</g>
</g>
  </svg>
  <svg x="8.5" y="358.2" width="165.578" height="147.606" viewBox="0 0 165.57777404785156 147.6060333251953" fill="none" overflow="visible">
    <svg x="-17.99" y="-17.99" width="201.578" height="183.606" viewBox="0 0 201.578 183.606" preserveAspectRatio="none" overflow="visible">
    <g id="bubble-l0-Group">
    <g id="bubble-l0-Vector" filter="url(#bubble-l0-filter0_d_0_35)">
    <path d="M181.664 165.603C168.544 164.868 138.426 159.563 114.523 128.117L41.8467 132.418C31.5923 133.028 22.7977 125.204 22.1887 114.943L18.0333 44.5594C17.4243 34.3074 25.2427 25.4983 35.497 24.8889L151.349 18.0333C161.594 17.4239 170.398 25.2563 171.007 35.5083L175.162 105.892C175.682 114.648 170.057 122.355 162.024 124.783C164.344 134.094 170.38 152.931 182.873 162.359C184.279 163.425 183.428 165.702 181.664 165.603Z" fill="var(--fill-0, #FEFEFE)"/>
    </g>
    </g>
    <defs>
    <filter id="bubble-l0-filter0_d_0_35" x="-1.88033e-09" y="0" width="201.578" height="183.606" filterUnits="userSpaceOnUse" color-interpolation-filters="sRGB">
    <feFlood flood-opacity="0" result="BackgroundImageFix"/>
    <feColorMatrix in="SourceAlpha" type="matrix" values="0 0 0 0 0 0 0 0 0 0 0 0 0 0 0 0 0 0 127 0" result="hardAlpha"/>
    <feOffset/>
    <feGaussianBlur stdDeviation="9"/>
    <feComposite in2="hardAlpha" operator="out"/>
    <feColorMatrix type="matrix" values="0 0 0 0 0 0 0 0 0 0 0 0 0 0 0 0 0 0 0.11 0"/>
    <feBlend mode="normal" in2="BackgroundImageFix" result="effect1_dropShadow_0_35"/>
    <feBlend mode="normal" in="SourceGraphic" in2="effect1_dropShadow_0_35" result="shape"/>
    </filter>
    </defs>
      </svg>
      <svg x="22.826" y="20.403" width="107.214" height="70.787" viewBox="0 0 107.214 70.7872" preserveAspectRatio="none" overflow="visible">
    <g id="bubble-l1-Group">
    <path id="bubble-l1-Vector" d="M8.07812 15.9964L2.87482 16.301L2.13148 18.8909L0 19.0164L3.71667 6.29999L6.07204 6.15657L11.2574 18.3443L9.10806 18.4698L8.07812 15.9964ZM7.40644 14.3654L5.0421 8.70167L3.3495 14.5984L7.40644 14.3654Z" fill="var(--fill-0, #23AD46)"/>
    <path id="bubble-l1-Vector_2" d="M13.6755 5.73541L14.4099 18.174L12.3679 18.2905L11.6336 5.85191L13.6755 5.73541Z" fill="var(--fill-0, #23AD46)"/>
    <path id="bubble-l1-Vector_3" d="M23.4014 10.2789L23.5 11.9995L16.1473 12.4296L16.0488 10.709L23.4014 10.2789Z" fill="var(--fill-0, #23AD46)"/>
    <path id="bubble-l1-Vector_4" d="M28.8018 7.73379C29.375 7.38429 30.0466 7.19613 30.7989 7.15132C31.6587 7.09755 32.4557 7.26781 33.1901 7.64419C33.9245 8.02954 34.5156 8.58516 34.9634 9.32897C35.4111 10.0728 35.6708 10.9331 35.7246 11.9189C35.7783 12.9046 35.635 13.8097 35.2768 14.6162C34.9186 15.4228 34.3991 16.0591 33.7095 16.543C33.0289 17.018 32.2587 17.2868 31.3989 17.3316C30.6466 17.3764 29.975 17.2599 29.366 16.9911C28.766 16.7222 28.2645 16.3727 27.8704 15.9426L28.2286 22.0633L26.1867 22.1798L25.3269 7.63522L27.3688 7.51872L27.4584 8.97048C27.7719 8.48656 28.2197 8.07432 28.8018 7.73379ZM33.1185 10.3057C32.805 9.83078 32.4199 9.47232 31.9453 9.23932C31.4706 9.00632 30.969 8.90778 30.4496 8.94363C29.9391 8.97051 29.4555 9.1318 29.0167 9.42753C28.5689 9.7143 28.2286 10.1175 27.9779 10.6373C27.7271 11.1571 27.6196 11.7575 27.6644 12.4296C27.7002 13.1107 27.8793 13.6932 28.1928 14.1861C28.5062 14.679 28.9003 15.0375 29.366 15.2705C29.8407 15.5035 30.3332 15.611 30.8437 15.5751C31.3631 15.5482 31.8467 15.378 32.2945 15.0823C32.7333 14.7865 33.0826 14.3743 33.3334 13.8456C33.5842 13.3168 33.6916 12.7074 33.6468 12.0353C33.6021 11.3632 33.4319 10.7807 33.1185 10.3057Z" fill="var(--fill-0, #23AD46)"/>
    <path id="bubble-l1-Vector_5" d="M38.9397 16.2383C38.1606 15.8619 37.5336 15.2974 37.0679 14.5536C36.5933 13.8098 36.3246 12.9315 36.262 11.9189C36.1993 10.9152 36.3694 10.019 36.7635 9.21247C37.1575 8.41489 37.7217 7.77863 38.465 7.31263C39.1994 6.84663 40.0413 6.58675 40.9816 6.53298C41.922 6.47921 42.7907 6.63153 43.5788 7.00791C44.3669 7.38429 45.0028 7.93991 45.4864 8.69268C45.97 9.44545 46.2476 10.3147 46.3103 11.3184C46.373 12.3221 46.1939 13.2183 45.7909 14.0248C45.3789 14.8313 44.8058 15.4676 44.0445 15.9336C43.2922 16.3996 42.4414 16.6685 41.5011 16.7222C40.5607 16.785 39.7099 16.6236 38.9397 16.2383ZM42.8444 14.4908C43.2922 14.213 43.6415 13.8187 43.8922 13.2989C44.152 12.7792 44.2595 12.1608 44.2147 11.4529C44.1699 10.7449 43.9997 10.1445 43.6952 9.66055C43.3907 9.18558 43.0056 8.82713 42.5399 8.60309C42.0742 8.37905 41.5727 8.28047 41.0533 8.31631C40.5249 8.3432 40.0502 8.50452 39.6204 8.78233C39.1905 9.06014 38.8591 9.4544 38.6262 9.96521C38.3934 10.476 38.2949 11.0854 38.3396 11.8024C38.4023 12.8598 38.7248 13.6664 39.2979 14.213C39.8711 14.7597 40.5697 15.0106 41.3936 14.9568C41.913 14.9299 42.3966 14.7686 42.8444 14.4908Z" fill="var(--fill-0, #23AD46)"/>
    <path id="bubble-l1-Vector_6" d="M60.4425 5.55616L57.9707 15.5931L55.8213 15.7186L53.4033 8.54934L51.845 15.9516L49.6956 16.077L46.0416 6.39855L48.1194 6.27308L50.6449 14.0786L52.2659 6.03115L54.3974 5.90568L56.8691 13.6753L58.4454 5.6637L60.4425 5.55616Z" fill="var(--fill-0, #23AD46)"/>
    <path id="bubble-l1-Vector_7" d="M70.4371 10.6732L62.9054 11.1213C63.0128 11.901 63.3442 12.5193 63.8905 12.9674C64.4457 13.4154 65.0995 13.6126 65.8608 13.5678C66.9534 13.505 67.7056 12.9942 68.0997 12.0533L70.3028 11.9189C70.061 12.8419 69.5595 13.6215 68.8161 14.2399C68.0728 14.8672 67.1145 15.2078 65.9593 15.2795C65.0189 15.3332 64.1591 15.1719 63.389 14.7955C62.6188 14.4191 62.0008 13.8545 61.5261 13.1107C61.0515 12.3669 60.7918 11.4887 60.738 10.476C60.6843 9.46338 60.8276 8.5583 61.1948 7.76072C61.562 6.96314 62.0993 6.3358 62.8247 5.87876C63.5412 5.42173 64.392 5.16185 65.3503 5.09912C66.2817 5.04535 67.1235 5.19771 67.8668 5.56513C68.6191 5.92359 69.2192 6.46127 69.667 7.16923C70.1147 7.87719 70.3655 8.71065 70.4282 9.66953C70.473 10.037 70.464 10.3685 70.4371 10.6732ZM68.2788 9.14975C68.2251 8.39698 67.9206 7.81446 67.3653 7.39327C66.8101 6.97207 66.1473 6.78388 65.3771 6.82869C64.6696 6.87349 64.0875 7.13343 63.6128 7.60839C63.1382 8.08335 62.8785 8.71063 62.8247 9.48132L68.2788 9.14975Z" fill="var(--fill-0, #23AD46)"/>
    <path id="bubble-l1-Vector_8" d="M74.5926 4.9737C75.0673 4.66004 75.6494 4.48975 76.3301 4.44494L76.4555 6.55985L75.936 6.58676C75.1389 6.63157 74.5479 6.87352 74.1538 7.30368C73.7687 7.73383 73.5985 8.45077 73.6612 9.45447L73.9657 14.6432L71.9238 14.7597L71.3417 4.90199L73.3836 4.78549L73.4642 6.21931C73.7418 5.69954 74.118 5.28735 74.5926 4.9737Z" fill="var(--fill-0, #23AD46)"/>
    <path id="bubble-l1-Vector_9" d="M86.6919 9.70536L79.1601 10.1534C79.2675 10.9331 79.5989 11.5514 80.1452 11.9995C80.7005 12.4476 81.3542 12.6447 82.1154 12.5999C83.208 12.5372 83.9603 12.0264 84.3544 11.0854L86.5575 10.951C86.3157 11.8741 85.8142 12.6537 85.0709 13.272C84.3276 13.8993 83.3693 14.2399 82.214 14.3116C81.2736 14.3654 80.4139 14.204 79.6437 13.8276C78.8735 13.4513 78.2555 12.8867 77.7809 12.1429C77.3062 11.3991 77.0465 10.5209 76.9928 9.50823C76.9301 8.49558 77.0823 7.59044 77.4495 6.79286C77.8167 5.99528 78.3541 5.368 79.0795 4.91096C79.7959 4.45392 80.6467 4.19404 81.605 4.13131C82.5364 4.07754 83.3783 4.22985 84.1216 4.59727C84.8739 4.95574 85.4739 5.49346 85.9216 6.20142C86.3694 6.90939 86.6202 7.74279 86.6829 8.70167C86.7187 9.0691 86.7188 9.40963 86.6919 9.70536ZM84.5335 8.18189C84.4798 7.42912 84.1753 6.84665 83.6201 6.42546C83.0648 6.00427 82.402 5.81607 81.6319 5.86088C80.9243 5.90569 80.3422 6.16557 79.8676 6.64053C79.3929 7.11549 79.1332 7.74282 79.0795 8.50455L84.5335 8.18189Z" fill="var(--fill-0, #23AD46)"/>
    <path id="bubble-l1-Vector_10" d="M87.677 6.20142C88.0442 5.41281 88.5726 4.78547 89.2532 4.31947C89.9339 3.85347 90.713 3.5936 91.5817 3.54879C92.2265 3.51294 92.8714 3.61154 93.5072 3.85351C94.152 4.09547 94.6715 4.43597 95.0655 4.88405L94.7879 0.125475L96.8477 0L97.6269 13.2362L95.567 13.3617L95.4775 11.874C95.173 12.3669 94.7342 12.7881 94.161 13.1376C93.5878 13.4782 92.9251 13.6753 92.1549 13.7201C91.2951 13.7739 90.4981 13.6037 89.7637 13.2094C89.0294 12.815 88.4293 12.2415 87.9726 11.4797C87.5158 10.727 87.2561 9.84874 87.2024 8.86297C87.1576 7.87721 87.3098 6.99004 87.677 6.20142ZM94.7521 6.68533C94.4386 6.2014 94.0535 5.84292 93.5878 5.60096C93.1221 5.36796 92.6206 5.26045 92.1012 5.2963C91.5728 5.32318 91.0981 5.48446 90.6593 5.77123C90.2205 6.058 89.8801 6.45232 89.6294 6.96313C89.3786 7.47394 89.2712 8.07435 89.3159 8.74647C89.3518 9.42755 89.5308 10.019 89.8443 10.5119C90.1577 11.0048 90.5429 11.3812 91.0265 11.6142C91.5011 11.8561 91.9937 11.9637 92.5042 11.9278C93.0326 11.9009 93.5072 11.7396 93.9461 11.4439C94.3849 11.1571 94.7252 10.7449 94.976 10.2251C95.2267 9.70538 95.3342 9.09598 95.2894 8.42387C95.2357 7.75175 95.0655 7.16925 94.7521 6.68533Z" fill="var(--fill-0, #23AD46)"/>
    <path id="bubble-l1-Vector_11" d="M4.7824 32.6917C5.25706 32.387 5.83919 32.2078 6.51983 32.163L6.64522 34.2779L6.12577 34.3048C5.32871 34.3496 4.73763 34.5916 4.34358 35.0217C3.95848 35.4519 3.78833 36.1688 3.85102 37.1725L4.15549 42.3612L2.1136 42.4777L1.53146 32.62L3.5734 32.5035L3.65397 33.9373C3.9316 33.4176 4.30775 33.0054 4.7824 32.6917Z" fill="var(--fill-0, #141046)"/>
    <path id="bubble-l1-Vector_12" d="M9.8872 41.5457C9.10805 41.1693 8.49008 40.6047 8.01542 39.8609C7.54077 39.1171 7.27213 38.2389 7.20944 37.2262C7.14675 36.2226 7.3169 35.3264 7.71096 34.5198C8.10501 33.7223 8.66919 33.086 9.41252 32.62C10.1559 32.154 10.9887 31.8941 11.9291 31.8404C12.8694 31.7866 13.7382 31.9389 14.5263 32.3153C15.3144 32.6917 15.9503 33.2473 16.4339 34.0001C16.9175 34.7528 17.1951 35.6221 17.2578 36.6258C17.3205 37.6295 17.1413 38.5256 16.7383 39.3322C16.3264 40.1387 15.7532 40.775 14.992 41.241C14.2397 41.707 13.3889 41.9758 12.4485 42.0296C11.5171 42.0923 10.6664 41.9311 9.8872 41.5457ZM13.8009 39.7982C14.2487 39.5204 14.5979 39.1261 14.8487 38.6063C15.1084 38.0865 15.2159 37.4682 15.1711 36.7602C15.1263 36.0523 14.9562 35.4518 14.6517 34.9679C14.3472 34.484 13.962 34.1345 13.4963 33.9105C13.0306 33.6864 12.5292 33.5878 12.0097 33.6237C11.4903 33.6595 11.0066 33.8119 10.5768 34.0897C10.1469 34.3675 9.81553 34.7618 9.58268 35.2726C9.34983 35.7834 9.25131 36.3928 9.29609 37.1097C9.35878 38.1762 9.6812 38.9737 10.2544 39.5204C10.8275 40.0671 11.5261 40.3179 12.35 40.2642C12.8695 40.2283 13.3531 40.076 13.8009 39.7982Z" fill="var(--fill-0, #141046)"/>
    <path id="bubble-l1-Vector_13" d="M27.0912 31.1145L27.6734 40.9722L25.6315 41.0887L25.5598 39.9237C25.2643 40.3449 24.8612 40.6944 24.3597 40.9542C23.8582 41.2141 23.3119 41.3665 22.7297 41.4023C21.9506 41.4471 21.2521 41.3307 20.6162 41.0439C19.9803 40.7571 19.4698 40.309 19.0847 39.6997C18.6996 39.0903 18.4758 38.3375 18.422 37.4413L18.0817 31.6432L20.1057 31.5267L20.4281 37.0201C20.4818 37.8983 20.7416 38.5705 21.2073 39.0096C21.673 39.4577 22.291 39.6548 23.0522 39.61C23.8134 39.5652 24.4045 39.2964 24.8254 38.7945C25.2463 38.2927 25.4255 37.6027 25.3807 36.7244L25.0583 31.231L27.0912 31.1145Z" fill="var(--fill-0, #141046)"/>
    <path id="bubble-l1-Vector_14" d="M31.4258 32.5304L31.7482 37.988C31.7661 38.3554 31.8736 38.6153 32.0527 38.7676C32.2318 38.92 32.5363 38.9827 32.9483 38.9558L34.2021 38.8841L34.3006 40.5868L32.6886 40.6854C31.7661 40.7392 31.0586 40.5689 30.5392 40.1656C30.0287 39.7624 29.7421 39.0813 29.6794 38.1134L29.357 32.6558L28.1928 32.7276L28.0943 31.0607L29.2585 30.989L29.1152 28.5336L31.175 28.4081L31.3184 30.8635L33.7095 30.7202L33.808 32.387L31.4258 32.5304Z" fill="var(--fill-0, #141046)"/>
    <path id="bubble-l1-Vector_15" d="M44.0714 35.8193L36.5396 36.2674C36.647 37.056 36.9784 37.6654 37.5247 38.1134C38.0799 38.5615 38.7337 38.7587 39.495 38.7139C40.5876 38.6511 41.3399 38.1403 41.7339 37.1994L43.937 37.065C43.6952 37.988 43.1937 38.7676 42.4504 39.386C41.707 40.0133 40.7488 40.3538 39.5935 40.4255C38.6531 40.4793 37.7934 40.318 37.0232 39.9416C36.253 39.5652 35.635 39.0006 35.1693 38.2568C34.7036 37.513 34.4349 36.6348 34.3722 35.6221C34.3096 34.6095 34.4618 33.7044 34.829 32.9068C35.1962 32.1092 35.7335 31.4819 36.459 31.0248C37.1754 30.5588 38.0262 30.3079 38.9845 30.2452C39.9159 30.1914 40.7577 30.3438 41.51 30.7112C42.2623 31.0697 42.8623 31.6073 43.3101 32.3153C43.7579 33.0233 44.0087 33.8567 44.0714 34.8156C44.1072 35.183 44.1072 35.5146 44.0714 35.8193ZM41.9219 34.2958C41.8682 33.5431 41.5638 32.9605 41.0085 32.5393C40.4532 32.1181 39.7905 31.93 39.0203 31.9748C38.3128 32.0196 37.7307 32.2795 37.256 32.7545C36.7814 33.2294 36.5217 33.8567 36.4679 34.6184L41.9219 34.2958Z" fill="var(--fill-0, #141046)"/>
    <path id="bubble-l1-Vector_16" d="M47.0537 39.5652C46.4267 39.3232 45.9163 38.9648 45.5312 38.5077C45.1461 38.0417 44.9222 37.522 44.8595 36.9215L46.973 36.7961C47.0357 37.2083 47.2506 37.5488 47.6357 37.8087C48.0119 38.0686 48.4776 38.1761 49.0239 38.1493C49.5971 38.1134 50.0359 37.979 50.3404 37.7371C50.6449 37.4951 50.7882 37.2083 50.7614 36.8588C50.7434 36.4914 50.5464 36.2225 50.1882 36.0702C49.821 35.9089 49.2567 35.7476 48.4776 35.5773C47.7253 35.416 47.1163 35.2547 46.6417 35.0934C46.167 34.9321 45.7461 34.6632 45.3789 34.2868C45.0117 33.9105 44.8147 33.4086 44.7789 32.7634C44.743 32.2346 44.8774 31.7508 45.155 31.2937C45.4416 30.8367 45.8625 30.4692 46.4267 30.1824C46.9909 29.8957 47.6447 29.7344 48.397 29.6896C49.5165 29.6268 50.4389 29.8509 51.1554 30.3796C51.8719 30.9084 52.2838 31.6522 52.3913 32.629L50.3494 32.7455C50.2867 32.3064 50.0897 31.9658 49.7493 31.7239C49.409 31.4819 48.9702 31.3744 48.4239 31.4102C47.8865 31.4461 47.4835 31.5715 47.2059 31.7866C46.9283 32.0106 46.8029 32.2795 46.8208 32.62C46.8387 32.8799 46.9462 33.0949 47.1432 33.2652C47.3402 33.4355 47.582 33.561 47.8686 33.6416C48.1462 33.7223 48.5582 33.8298 49.1045 33.9553C49.8299 34.1076 50.43 34.26 50.8957 34.4303C51.3614 34.6005 51.7823 34.8693 52.1405 35.2278C52.4988 35.5863 52.6958 36.0881 52.7495 36.7154C52.7853 37.28 52.66 37.7908 52.3734 38.2478C52.0868 38.7049 51.6748 39.0813 51.1196 39.3591C50.5643 39.6459 49.9105 39.8072 49.1493 39.852C48.3791 39.9057 47.6806 39.8072 47.0537 39.5652Z" fill="var(--fill-0, #141046)"/>
    <path id="bubble-l1-Vector_17" d="M71.5656 28.8024C72.2014 29.0892 72.7119 29.5373 73.097 30.1467C73.4821 30.756 73.706 31.5088 73.7598 32.405L74.1001 38.221L72.0761 38.3375L71.7537 32.8261C71.6999 31.9479 71.4402 31.2758 70.9745 30.8367C70.5088 30.3886 69.8908 30.1915 69.1296 30.2363C68.3683 30.2811 67.7773 30.5499 67.3564 31.0518C66.9354 31.5536 66.7563 32.2437 66.8011 33.1219L67.1235 38.6333L65.0995 38.7498L64.7771 33.2384C64.7234 32.3602 64.4636 31.688 63.9979 31.2489C63.5322 30.8008 62.9143 30.6037 62.1531 30.6485C61.3918 30.6933 60.8008 30.9622 60.3798 31.464C59.9589 31.9659 59.7798 32.6559 59.8335 33.5341L60.1559 39.0455L58.114 39.162L57.5319 29.3043L59.5738 29.1878L59.6365 30.3169C59.9499 29.8957 60.3529 29.5552 60.8545 29.2953C61.356 29.0354 61.8933 28.892 62.4755 28.8562C63.2636 28.8114 63.9711 28.9368 64.6159 29.2326C65.2518 29.5283 65.7622 29.9853 66.1294 30.5947C66.3891 29.9764 66.828 29.4835 67.437 29.0892C68.046 28.7039 68.7177 28.4798 69.4431 28.444C70.2312 28.3992 70.9387 28.5246 71.5656 28.8024Z" fill="var(--fill-0, #141046)"/>
    <path id="bubble-l1-Vector_18" d="M75.3718 30.523C75.739 29.7344 76.2674 29.1071 76.948 28.6411C77.6286 28.1751 78.3988 27.9152 79.2586 27.8704C80.0377 27.8256 80.7184 27.9332 81.3184 28.211C81.9185 28.4888 82.4021 28.8293 82.7693 29.2684L82.6886 27.8345L84.7484 27.7091L85.3306 37.5668L83.2708 37.6922L83.1812 36.2226C82.8588 36.7065 82.411 37.1276 81.8378 37.4682C81.2646 37.8177 80.593 38.0059 79.8228 38.0507C78.972 38.1045 78.1929 37.9252 77.4585 37.5309C76.7241 37.1366 76.133 36.5631 75.6762 35.8014C75.2195 35.0486 74.9598 34.1704 74.9061 33.1846C74.8434 32.1988 75.0046 31.3116 75.3718 30.523ZM82.4468 30.998C82.1333 30.5141 81.7483 30.1556 81.2826 29.9226C80.8169 29.6896 80.3154 29.5821 79.7959 29.6179C79.2765 29.6448 78.7929 29.8061 78.3541 30.0929C77.9152 30.3796 77.5749 30.774 77.3241 31.2848C77.0734 31.7956 76.9659 32.396 77.0107 33.0681C77.0465 33.7492 77.2256 34.3406 77.5391 34.8335C77.8525 35.3264 78.2376 35.7028 78.7212 35.9358C79.1959 36.1778 79.6885 36.2853 80.1989 36.2494C80.7184 36.2225 81.202 36.0613 81.6408 35.7655C82.0796 35.4788 82.4199 35.0665 82.6707 34.5468C82.9215 34.027 83.029 33.4176 82.9842 32.7455C82.9304 32.0644 82.7603 31.4819 82.4468 30.998Z" fill="var(--fill-0, #141046)"/>
    <path id="bubble-l1-Vector_19" d="M86.665 29.8509C87.0322 29.0623 87.5606 28.435 88.2412 27.969C88.9219 27.503 89.701 27.2431 90.5697 27.1893C91.2145 27.1535 91.8594 27.252 92.4952 27.494C93.14 27.736 93.6595 28.0855 94.0535 28.5246L93.7759 23.766L95.8357 23.6405L96.6149 36.8768L94.555 37.0022L94.4655 35.5146C94.161 36.0075 93.7221 36.4287 93.149 36.7782C92.5758 37.1187 91.9131 37.3158 91.1429 37.3607C90.2831 37.4144 89.4861 37.2441 88.7517 36.8498C88.0173 36.4555 87.4173 35.882 86.9606 35.1203C86.5038 34.3675 86.2441 33.4893 86.1904 32.5035C86.1456 31.5267 86.2978 30.6395 86.665 29.8509ZM93.749 30.3348C93.4356 29.8509 93.0505 29.4924 92.5848 29.2594C92.1191 29.0264 91.6176 28.9189 91.0981 28.9547C90.5697 28.9816 90.0951 29.1429 89.6563 29.4297C89.2174 29.7165 88.8771 30.1108 88.6263 30.6216C88.3756 31.1324 88.2681 31.7328 88.3129 32.405C88.3487 33.086 88.5278 33.6775 88.8413 34.1703C89.1547 34.6632 89.5488 35.0397 90.0234 35.2727C90.4981 35.5057 90.9907 35.6221 91.5011 35.5863C92.0295 35.5594 92.5042 35.3981 92.943 35.1024C93.3818 34.8156 93.7222 34.4033 93.9729 33.8836C94.2237 33.3638 94.3312 32.7545 94.2864 32.0824C94.2326 31.4013 94.0535 30.8188 93.749 30.3348Z" fill="var(--fill-0, #141046)"/>
    <path id="bubble-l1-Vector_20" d="M107.192 32.0824L99.6598 32.5304C99.7673 33.319 100.099 33.9284 100.645 34.3765C101.2 34.8246 101.854 35.0217 102.615 34.9769C103.708 34.9142 104.46 34.4034 104.854 33.4624L107.057 33.328C106.815 34.251 106.314 35.0307 105.571 35.649C104.827 36.2763 103.869 36.6168 102.714 36.6885C101.773 36.7423 100.914 36.581 100.143 36.2046C99.3732 35.8283 98.7553 35.2637 98.2896 34.5199C97.8239 33.7761 97.5552 32.8978 97.4925 31.8852C97.4299 30.8725 97.5821 29.9674 97.9493 29.1788C98.3165 28.3812 98.8538 27.7539 99.5792 27.2969C100.296 26.8309 101.146 26.5799 102.105 26.5172C103.036 26.4634 103.878 26.6158 104.621 26.9832C105.374 27.3417 105.974 27.8794 106.421 28.5873C106.869 29.2953 107.12 30.1287 107.183 31.0876C107.227 31.446 107.218 31.7866 107.192 32.0824ZM105.042 30.5589C104.989 29.8061 104.684 29.2236 104.129 28.8024C103.573 28.3812 102.911 28.193 102.141 28.2378C101.433 28.2826 100.851 28.5425 100.376 29.0175C99.9016 29.4924 99.6419 30.1197 99.5882 30.8815L105.042 30.5589Z" fill="var(--fill-0, #141046)"/>
    <path id="bubble-l1-Vector_21" d="M5.66902 67.803C5.72275 68.7709 5.52574 69.4878 5.069 69.9449C4.61225 70.4109 3.92267 70.6707 3.00918 70.7245L1.95241 70.7872L1.85385 69.0666L2.55243 69.0218C2.97335 68.9949 3.25991 68.8963 3.42111 68.726C3.58231 68.5558 3.65395 68.287 3.63604 67.9106L2.93752 56.1172L4.97941 56.0007L5.66902 67.803ZM2.93752 54.4414C2.66885 54.2084 2.52557 53.9037 2.50766 53.5363C2.48975 53.1689 2.58825 52.8462 2.83005 52.5863C3.0629 52.3175 3.36741 52.1741 3.7346 52.1562C4.09283 52.1382 4.40626 52.2458 4.66598 52.4788C4.92569 52.7118 5.07792 53.0165 5.09584 53.3839C5.11375 53.7513 5.01525 54.0739 4.77344 54.3338C4.54059 54.6027 4.24506 54.7461 3.88683 54.764C3.51964 54.7819 3.20619 54.6744 2.93752 54.4414Z" fill="var(--fill-0, #141046)"/>
    <path id="bubble-l1-Vector_22" d="M15.7532 55.3734L16.3354 65.2311L14.2934 65.3476L14.2218 64.1825C13.9262 64.6037 13.5232 64.9533 13.0217 65.2131C12.5202 65.473 11.9739 65.6254 11.3918 65.6612C10.6126 65.706 9.91408 65.5895 9.27822 65.3027C8.64236 65.016 8.13186 64.5679 7.74676 63.9585C7.36166 63.3491 7.13778 62.5964 7.08404 61.7002L6.74372 55.9021L8.76773 55.7856L9.09013 61.279C9.14386 62.1572 9.40357 62.8294 9.86927 63.2685C10.335 63.7166 10.9529 63.9137 11.7142 63.8689C12.4754 63.8241 13.0665 63.5553 13.4874 63.0534C13.9083 62.5516 14.0875 61.8615 14.0337 60.9833L13.7113 55.4899L15.7532 55.3734Z" fill="var(--fill-0, #141046)"/>
    <path id="bubble-l1-Vector_23" d="M19.6669 64.774C19.031 64.532 18.5295 64.1736 18.1444 63.7166C17.7593 63.2506 17.5354 62.7308 17.4727 62.1303L19.5863 62.0049C19.649 62.4171 19.8639 62.7576 20.249 63.0175C20.6252 63.2774 21.0909 63.3939 21.6372 63.3581C22.2103 63.3222 22.6491 63.1878 22.9536 62.9459C23.2581 62.7039 23.4015 62.4171 23.3746 62.0676C23.3567 61.7002 23.1596 61.4313 22.8014 61.279C22.4342 61.1177 21.87 60.9564 21.0909 60.7861C20.3386 60.6248 19.7296 60.4635 19.2549 60.3022C18.7802 60.1409 18.3594 59.872 17.9922 59.4957C17.625 59.1193 17.428 58.6174 17.3921 57.9722C17.3653 57.4434 17.4906 56.9596 17.7683 56.5025C18.0549 56.0455 18.4758 55.678 19.04 55.3912C19.6042 55.1045 20.258 54.9432 21.0103 54.8984C22.1297 54.8356 23.0522 55.0597 23.7686 55.5884C24.4851 56.1172 24.8971 56.8699 25.0045 57.8378L22.9626 57.9543C22.8999 57.5152 22.7029 57.1746 22.3626 56.9327C22.0223 56.6907 21.5835 56.5831 21.0371 56.619C20.4998 56.6548 20.0968 56.7803 19.8191 56.9954C19.5415 57.2194 19.4161 57.4883 19.434 57.8288C19.4519 58.0887 19.5594 58.3038 19.7564 58.474C19.9535 58.6443 20.1953 58.7698 20.4819 58.8504C20.7595 58.9311 21.1714 59.0386 21.7177 59.1641C22.4432 59.3164 23.0432 59.4688 23.5089 59.6391C23.9746 59.8093 24.3955 60.0781 24.7448 60.4366C25.103 60.7951 25.3 61.2969 25.3538 61.9242C25.3896 62.4888 25.2642 62.9996 24.9777 63.4566C24.6911 63.9137 24.2791 64.2901 23.7239 64.5679C23.1686 64.8547 22.5148 65.016 21.7536 65.0608C21.0013 65.1146 20.3028 65.016 19.6669 64.774Z" fill="var(--fill-0, #141046)"/>
    <path id="bubble-l1-Vector_24" d="M28.8107 56.2695L29.1331 61.7271C29.1511 62.0945 29.2585 62.3544 29.4377 62.5067C29.6168 62.6591 29.9213 62.7218 30.3332 62.6949L31.587 62.6232L31.6855 64.326L30.0735 64.4245C29.151 64.4783 28.4436 64.308 27.9241 63.9047C27.4047 63.5015 27.1271 62.8204 27.0644 61.8526L26.742 56.395L25.5777 56.4667L25.4792 54.7998L26.6434 54.7281L26.5001 52.2816L28.56 52.1562L28.7033 54.6026L31.0945 54.4593L31.193 56.1261L28.8107 56.2695Z" fill="var(--fill-0, #141046)"/>
    <path id="bubble-l1-Vector_25" d="M40.2204 55.5974L38.3934 55.705L38.877 63.8958L36.8172 64.0212L36.3336 55.8304L35.1693 55.9021L35.0708 54.2352L36.2351 54.1635L36.1903 53.4646C36.1186 52.3354 36.3783 51.4841 36.9425 50.9284C37.5068 50.3728 38.4472 50.0592 39.7278 49.9785L39.8263 51.6812C39.2084 51.7171 38.7785 51.8604 38.5457 52.1114C38.3128 52.3623 38.2053 52.7656 38.2411 53.3391L38.2859 54.0381L40.1129 53.9305L40.2204 55.5974Z" fill="var(--fill-0, #141046)"/>
    <path id="bubble-l1-Vector_26" d="M43.4086 63.152C42.6295 62.7756 42.0115 62.211 41.5369 61.4672C41.0622 60.7234 40.7936 59.8452 40.7398 58.8325C40.6771 57.8288 40.8473 56.9326 41.2414 56.1261C41.6354 55.3285 42.1996 54.6923 42.9429 54.2263C43.6863 53.7603 44.5191 53.5004 45.4595 53.4466C46.3998 53.3928 47.2686 53.5542 48.0567 53.9216C48.8448 54.298 49.4807 54.8536 49.9643 55.6064C50.4479 56.3591 50.7255 57.2284 50.7882 58.2321C50.8509 59.2358 50.6717 60.1319 50.2687 60.9384C49.8568 61.745 49.2836 62.3723 48.5224 62.8473C47.7612 63.3222 46.9193 63.5821 45.9789 63.6359C45.0386 63.6986 44.1878 63.5284 43.4086 63.152ZM47.3223 61.4045C47.7701 61.1267 48.1194 60.7323 48.3701 60.2126C48.6298 59.6928 48.7373 59.0744 48.6926 58.3665C48.6478 57.6496 48.4776 57.0491 48.1731 56.5742C47.8686 56.0992 47.4835 55.7408 47.0178 55.5167C46.5521 55.2927 46.0506 55.1941 45.5312 55.2299C45.0117 55.2658 44.5281 55.4182 44.0983 55.696C43.6684 55.9738 43.337 56.3681 43.1041 56.8789C42.8713 57.3897 42.7728 57.9991 42.8175 58.716C42.8802 59.7824 43.2026 60.58 43.7758 61.1267C44.349 61.6733 45.0475 61.9242 45.8715 61.8705C46.3909 61.8346 46.8745 61.6823 47.3223 61.4045Z" fill="var(--fill-0, #141046)"/>
    <path id="bubble-l1-Vector_27" d="M54.9347 53.3122C55.4094 52.9986 55.9915 52.8283 56.6721 52.7835L56.7975 54.8984L56.2781 54.9253C55.481 54.9701 54.8899 55.2121 54.4959 55.6422C54.1018 56.0724 53.9406 56.7893 54.0033 57.793L54.3078 62.9817L52.2659 63.0982L51.6838 53.2405L53.7257 53.124L53.8063 54.5579C54.0839 54.0381 54.4511 53.6259 54.9347 53.3122Z" fill="var(--fill-0, #141046)"/>
    <path id="bubble-l1-Vector_28" d="M70.4282 52.1382L65.2428 66.9875L63.1293 67.113L64.8488 62.2021L60.3977 52.7387L62.6725 52.6042L65.8876 59.9527L68.3236 52.2637L70.4282 52.1382Z" fill="var(--fill-0, #141046)"/>
    <path id="bubble-l1-Vector_29" d="M73.4463 61.3776C72.6671 61.0012 72.0492 60.4366 71.5745 59.6928C71.0999 58.949 70.8312 58.0708 70.7775 57.0581C70.7148 56.0544 70.8849 55.1583 71.279 54.3517C71.673 53.5452 72.2373 52.9179 72.9806 52.4519C73.7239 51.9859 74.5568 51.726 75.4972 51.6722C76.4375 51.6185 77.3062 51.7798 78.0943 52.1472C78.8824 52.5236 79.5183 53.0792 80.0019 53.832C80.4855 54.5847 80.7631 55.454 80.8258 56.4577C80.8885 57.4614 80.7094 58.3575 80.3064 59.1641C79.8945 59.9706 79.3213 60.5979 78.56 61.0729C77.8077 61.5389 76.9569 61.8077 76.0166 61.8615C75.0762 61.9153 74.2254 61.754 73.4463 61.3776ZM77.3599 59.6301C77.8077 59.3523 78.157 58.958 78.4078 58.4382C78.6675 57.9184 78.775 57.3001 78.7302 56.5921C78.6854 55.8752 78.5152 55.2748 78.2107 54.7998C77.9062 54.3249 77.5212 53.9664 77.0555 53.7424C76.5898 53.5183 76.0882 53.4197 75.5688 53.4556C75.0493 53.4914 74.5658 53.6438 74.1359 53.9216C73.706 54.1994 73.3747 54.5937 73.1418 55.1045C72.909 55.6153 72.8104 56.2247 72.8552 56.9416C72.9179 58.0081 73.2403 58.8056 73.8135 59.3523C74.3867 59.8989 75.0852 60.1498 75.9091 60.0961C76.4285 60.0602 76.9121 59.9079 77.3599 59.6301Z" fill="var(--fill-0, #141046)"/>
    <path id="bubble-l1-Vector_30" d="M90.6503 50.9464L91.2325 60.8041L89.1905 60.9206L89.1189 59.7555C88.8233 60.1767 88.4203 60.5262 87.9188 60.7861C87.4173 61.046 86.871 61.1984 86.2889 61.2342C85.5097 61.279 84.8112 61.1625 84.1753 60.8757C83.5395 60.589 83.029 60.1409 82.6439 59.5315C82.2588 58.9221 82.0349 58.1694 81.9811 57.2732L81.6408 51.4751L83.6648 51.3586L83.9872 56.852C84.041 57.7302 84.3007 58.4024 84.7664 58.8415C85.2321 59.2896 85.85 59.4867 86.6113 59.4419C87.3725 59.3971 87.9636 59.1283 88.3845 58.6264C88.8054 58.1246 88.9846 57.4345 88.9308 56.5563L88.6084 51.0629L90.6503 50.9464Z" fill="var(--fill-0, #141046)"/>
    </g>
      </svg>
  </svg>
</svg>
