<svg width="89" height="89" viewBox="0 0 89 89" fill="none" xmlns="http://www.w3.org/2000/svg">
<path d="M65.0369 88.3787H23.285C10.4245 88.3787 0 77.9475 0 65.0787V23.3C0 10.4312 10.4245 0 23.285 0H65.0369C77.8974 0 88.3219 10.4312 88.3219 23.3V65.0787C88.3219 77.9475 77.8884 88.3787 65.0369 88.3787Z" fill="#FEDDE9"/>
<path d="M69.2016 46.2054C69.1927 47.46 69.1838 48.7235 69.1659 49.9782C69.1569 50.5786 69.1479 51.17 69.139 51.7615C69.0763 55.5074 68.9867 59.2444 68.8613 62.9724C66.3716 63.7341 63.7745 64.4152 61.0788 65.0425C60.4698 65.1859 59.8518 65.3203 59.2338 65.4548C57.0397 65.9297 54.7919 66.3689 52.4902 66.7632V25.2802C54.8366 24.608 57.1562 23.9987 59.422 23.461C62.6729 22.6903 65.8253 22.063 68.8613 21.6328C68.9867 24.9575 69.0673 28.2823 69.13 31.598C69.2196 36.4731 69.2374 41.3482 69.2016 46.2054Z" fill="#FC78BA"/>
<path d="M35.7248 21.624V63.2235C33.9963 63.788 32.1962 64.2899 30.3424 64.738C26.8944 65.5804 23.2405 66.2435 19.4253 66.7633C19.3537 64.2182 19.291 61.6194 19.2373 58.9847C19.1925 56.8429 19.1657 54.6741 19.1388 52.4965C19.0851 47.6931 19.0761 42.8091 19.1298 37.9609C19.1388 36.7511 19.1566 35.5503 19.1746 34.3404C19.2283 31.2039 19.3089 28.0853 19.4253 25.0294C23.3301 23.9271 27.4945 23.022 31.856 22.2603C32.5993 22.1258 33.3516 22.0004 34.1039 21.8839C34.6502 21.7943 35.1875 21.7047 35.7248 21.624Z" fill="#FC78BA"/>
<path d="M52.4901 25.2713V66.7633C52.0512 66.7006 51.6213 66.6378 51.1914 66.5751C49.5794 66.3331 47.9942 66.0822 46.4717 65.8134C45.8985 65.7148 45.3343 65.6072 44.7791 65.4997C43.6148 65.2756 42.4865 65.0427 41.3939 64.7917C39.343 64.3257 37.4443 63.806 35.7158 63.2235V21.624C41.5281 22.556 47.1166 23.7747 52.4901 25.2713Z" fill="#FC78BA"/>
<path d="M35.7246 21.624V63.2235" stroke="#FEF8DE" stroke-width="1.0194" stroke-miterlimit="10"/>
<path d="M52.4902 25.2178V66.8173" stroke="#FEF8DE" stroke-width="1.0194" stroke-miterlimit="10"/>
<path d="M26.4197 54.567C26.9481 58.1964 28.3094 61.6914 30.3424 64.7383C26.8944 65.5807 23.2405 66.2439 19.4253 66.7637C19.3537 64.2186 19.291 61.6197 19.2373 58.9851C19.1925 56.8432 19.1657 54.6745 19.1388 52.4969C19.0851 47.6935 19.0761 42.8095 19.1298 37.9613C19.1388 36.7515 19.1566 35.5506 19.1746 34.3408C20.6523 34.9054 22.0046 35.918 22.9718 37.1726C24.8077 39.5475 25.5242 42.6033 25.8019 45.5875C26.0884 48.5807 25.9809 51.6007 26.4197 54.567Z" fill="#4A35EA"/>
<path d="M51.102 66.4321C51.1289 66.4769 51.1647 66.5217 51.1916 66.5665C49.5795 66.3246 47.9943 66.0737 46.4718 65.8048C45.8987 65.7062 45.3344 65.5987 44.7792 65.4911C43.6149 65.2671 42.4866 65.0341 41.394 64.7832C41.2865 63.2059 41.1432 61.6556 42.1462 60.5354C43.5523 58.9761 46.2569 59.6213 47.7346 61.1179C49.2123 62.6234 49.9288 64.6936 51.102 66.4321Z" fill="#4A35EA"/>
<path d="M61.5444 26.4184C60.6936 25.594 59.9503 24.5634 59.4219 23.4522C62.6728 22.6815 65.8252 22.0542 68.8612 21.624C68.9866 24.9488 69.0672 28.2735 69.1299 31.5892C66.5327 29.9493 63.7475 28.5602 61.5444 26.4184Z" fill="#4A35EA"/>
<path d="M69.1566 49.9785C69.1477 50.5789 69.1387 51.1704 69.1297 51.7619C69.0671 55.5078 68.9774 59.2447 68.8521 62.9727C66.3624 63.7345 63.7652 64.4156 61.0696 65.0429C60.4606 65.1862 59.8426 65.3207 59.2246 65.4551C59.3052 65.0966 59.368 64.7292 59.3948 64.3707C59.5739 62.3634 59.2426 60.3112 59.762 58.3666C60.783 54.5669 64.6519 52.3802 68.1357 50.5341C68.4849 50.3459 68.8253 50.1667 69.1566 49.9785Z" fill="#4A35EA"/>
</svg>
