<svg width="89" height="89" viewBox="0 0 89 89" fill="none" xmlns="http://www.w3.org/2000/svg">
<path d="M65.0368 88.3787H23.285C10.4245 88.3787 0 77.9475 0 65.0787V23.3C0 10.4312 10.4245 0 23.285 0H65.0368C77.8973 0 88.3218 10.4312 88.3218 23.3V65.0787C88.3218 77.9475 77.8973 88.3787 65.0368 88.3787Z" fill="#C7FBD6"/>
<path d="M62.6186 34.3413C62.6186 39.1178 58.7497 42.9891 53.9763 42.9891C51.5761 42.9891 49.4089 42.0123 47.8506 40.4351C46.2922 38.8758 45.334 36.7161 45.334 34.3413C45.334 32.0382 46.2385 29.9411 47.7073 28.3908C49.2835 26.7239 51.5135 25.6934 53.9763 25.6934C58.7497 25.6934 62.6186 29.5737 62.6186 34.3413Z" fill="#35BA54"/>
<path d="M67.0693 57.5158C67.0693 61.1632 60.4241 62.9734 53.8327 62.9465C47.3308 62.9196 40.8916 61.1094 40.8916 57.5158C40.8916 53.2412 42.9335 49.4504 46.1039 47.0577C48.298 45.3998 51.0295 44.4141 53.9849 44.4141C61.2033 44.4141 67.0693 50.2839 67.0693 57.5158Z" fill="#35BA54"/>
<path d="M38.062 42.4958C44.1903 42.4958 49.1582 37.5246 49.1582 31.3924C49.1582 25.2602 44.1903 20.2891 38.062 20.2891C31.9338 20.2891 26.9658 25.2602 26.9658 31.3924C26.9658 37.5246 31.9338 42.4958 38.062 42.4958Z" fill="#35BA54" stroke="#C7FBD6" stroke-width="1.699" stroke-miterlimit="10"/>
<path d="M54.8717 61.1363C54.8717 70.4204 21.2607 70.4204 21.2607 61.1363C21.2607 51.8521 28.7836 44.3154 38.0707 44.3154C47.3579 44.3154 54.8717 51.8521 54.8717 61.1363Z" fill="#35BA54" stroke="#C7FBD6" stroke-width="1.699" stroke-miterlimit="10"/>
</svg>
