<svg width="89" height="89" viewBox="0 0 89 89" fill="none" xmlns="http://www.w3.org/2000/svg">
<path d="M70.4103 88.3787H17.9115C8.01541 88.3787 0 80.3581 0 70.4556V17.9231C0 8.02058 8.01541 0 17.9115 0H70.4103C80.3064 0 88.3219 8.02058 88.3219 17.9231V70.4556C88.3219 80.3581 80.2975 88.3787 70.4103 88.3787Z" fill="#FEE06F"/>
<path d="M43.4448 33.1484C43.4448 33.1484 35.7698 66.5212 40.6506 68.3314C45.5315 70.1506 50.0005 69.3083 48.7467 59.818C47.4929 50.3277 46.7943 33.1484 46.7943 33.1484H43.4448Z" fill="#F9510D"/>
<path d="M43.4087 25.9346C42.7997 24.922 42.0474 23.9899 41.2056 23.1655C36.8262 18.8729 29.8944 17.681 25.0941 21.9377C24.9777 22.0363 24.5389 22.5561 24.0463 23.1655C23.2582 24.1244 23.7956 25.5672 25.0136 25.7912C27.6645 26.2841 30.3512 27.1354 32.626 27.691C36.1635 28.5693 38.6174 30.0211 41.5011 32.2435C42.0206 32.6468 42.5848 33.059 43.2296 33.1755C44.0893 33.3368 44.958 32.8529 45.0118 31.9388C45.1461 29.8239 44.5103 27.7538 43.4087 25.9346Z" fill="#35BA54"/>
<path d="M38.7158 29.3933C37.5337 29.3037 36.3425 29.3664 35.1872 29.5725C29.1511 30.6389 24.1448 35.5946 24.8165 41.9663C24.8344 42.1186 25.0045 42.7728 25.2015 43.5346C25.524 44.7354 27.0106 45.1387 27.8972 44.2784C29.8406 42.4054 32.0975 40.7117 33.8707 39.1882C36.6381 36.8134 39.2532 35.6664 42.737 34.6179C43.3728 34.4297 44.0266 34.2146 44.5012 33.7575C45.1371 33.1482 45.2446 32.1624 44.5371 31.5889C42.8982 30.2446 40.8383 29.5635 38.7158 29.3933Z" fill="#35BA54"/>
<path d="M44.9139 25.9346C45.5229 24.922 46.2752 23.9899 47.117 23.1655C51.4964 18.8729 58.4281 17.681 63.2284 21.9377C63.3449 22.0363 63.7837 22.5561 64.2762 23.1655C65.0644 24.1244 64.527 25.5672 63.309 25.7912C60.6581 26.2841 57.9714 27.1354 55.6966 27.691C52.1591 28.5693 49.7052 30.0211 46.8215 32.2435C46.302 32.6468 45.7378 33.059 45.093 33.1755C44.2332 33.3368 43.3645 32.8529 43.3108 31.9388C43.1675 29.8239 43.8123 27.7538 44.9139 25.9346Z" fill="#35BA54"/>
<path d="M49.5976 29.3933C50.7797 29.3037 51.9709 29.3664 53.1261 29.5725C59.1623 30.6389 64.1686 35.5946 63.4969 41.9663C63.479 42.1186 63.3089 42.7728 63.1119 43.5346C62.7894 44.7354 61.3028 45.1387 60.4162 44.2784C58.4728 42.4054 56.2159 40.7117 54.4427 39.1882C51.6753 36.8134 49.0602 35.6664 45.5764 34.6179C44.9406 34.4297 44.2868 34.2146 43.8122 33.7575C43.1763 33.1482 43.0688 32.1624 43.7763 31.5889C45.4242 30.2446 47.484 29.5635 49.5976 29.3933Z" fill="#35BA54"/>
</svg>
