<svg width="89" height="89" viewBox="0 0 89 89" fill="none" xmlns="http://www.w3.org/2000/svg">
<path d="M65.0368 88.3787H23.285C10.4245 88.3787 0 77.9475 0 65.0787V23.3C0 10.4312 10.4245 0 23.285 0H65.0368C77.8973 0 88.3218 10.4312 88.3218 23.3V65.0787C88.3218 77.9475 77.8973 88.3787 65.0368 88.3787Z" fill="#FEDFD3"/>
<path d="M66.3174 69.6936C67.0159 71.4949 65.8517 74.1565 60.2633 75.214C56.5735 75.913 51.4866 75.2946 46.5699 75.2946C41.2591 75.2946 36.0558 76.4238 31.0764 75.7786C25.7567 75.0885 23.0879 72.875 22.8461 70.5002C22.4072 66.1628 26.4105 62.39 42.6742 64.2361C47.6804 64.8007 50.6896 64.5766 54.4689 64.953C60.935 65.5982 65.377 67.2651 66.3174 69.6936Z" fill="#35BA54"/>
<path d="M44.6625 15.6113C33.5842 15.6113 24.6016 24.5998 24.6016 35.6852C24.6016 44.4227 37.0501 60.0784 42.334 66.3246C43.552 67.7674 45.773 67.7674 46.991 66.3246C52.2749 60.0695 64.7234 44.4137 64.7234 35.6852C64.7234 24.5998 55.7408 15.6113 44.6625 15.6113ZM44.6625 43.6789C40.2473 43.6789 36.6739 40.1032 36.6739 35.6852C36.6739 31.2672 40.2563 27.6915 44.6625 27.6915C49.0777 27.6915 52.651 31.2761 52.651 35.6852C52.651 40.0943 49.0777 43.6789 44.6625 43.6789Z" fill="#FD4502"/>
</svg>
