<svg width="89" height="89" viewBox="0 0 89 89" fill="none" xmlns="http://www.w3.org/2000/svg">
<path d="M65.0368 88.3787H23.2851C10.4246 88.3787 0 77.9475 0 65.0787V23.3C0 10.4312 10.4246 0 23.2851 0H65.0368C77.8973 0 88.3219 10.4312 88.3219 23.3V65.0787C88.3219 77.9475 77.8973 88.3787 65.0368 88.3787Z" fill="#D8D0FC"/>
<path d="M36.4502 60.58C35.286 56.2515 31.6589 48.0876 20.5806 45.1751C20.0343 45.0317 20.0343 44.261 20.5806 44.1176C31.6589 41.2051 35.286 33.0411 36.4502 28.7127C36.5935 28.1661 37.3638 28.1661 37.507 28.7127C38.6713 33.0411 42.2984 41.2051 53.3766 44.1176C53.9229 44.261 53.9229 45.0317 53.3766 45.1751C42.2984 48.0876 38.6713 56.2515 37.507 60.58C37.3638 61.1266 36.6025 61.1266 36.4502 60.58Z" fill="#4A35EA"/>
<path d="M52.9378 37.4056C52.3109 35.0845 50.3675 30.6933 44.4209 29.134C44.1253 29.0534 44.1253 28.6412 44.4209 28.5695C50.3675 27.0102 52.3199 22.619 52.9378 20.298C53.0184 20.0022 53.4304 20.0022 53.502 20.298C54.1289 22.619 56.0724 27.0102 62.019 28.5695C62.3145 28.6502 62.3145 29.0623 62.019 29.134C56.0724 30.6933 54.12 35.0845 53.502 37.4056C53.4304 37.7013 53.0184 37.7013 52.9378 37.4056Z" fill="#4A35EA"/>
<path d="M55.7497 62.0499C55.3288 60.4727 54.0032 57.4975 49.9642 56.44C49.7671 56.3862 49.7671 56.1084 49.9642 56.0547C54.0032 54.9972 55.3198 52.022 55.7497 50.4447C55.8034 50.2476 56.081 50.2476 56.1347 50.4447C56.5556 52.022 57.8812 54.9972 61.9202 56.0547C62.1172 56.1084 62.1172 56.3862 61.9202 56.44C57.8812 57.4975 56.5646 60.4727 56.1347 62.0499C56.081 62.2471 55.8034 62.2471 55.7497 62.0499Z" fill="#4A35EA"/>
</svg>
